<?xml version="1.0" encoding="utf-8"?>
<!-- Generated by IcoMoon.io -->
<!DOCTYPE svg PUBLIC "-//W3C//DTD SVG 1.1//EN" "http://www.w3.org/Graphics/SVG/1.1/DTD/svg11.dtd">
<svg version="1.1" xmlns="http://www.w3.org/2000/svg" xmlns:xlink="http://www.w3.org/1999/xlink" width="72" height="72" viewBox="0 0 72 72">
<path fill="#444" d="M69.84 32.4h-12.24v-12.24c0-2.16-1.44-2.16-3.6-2.16s-3.6 0-3.6 2.16v12.24h-12.24c-2.16 0-2.16 1.44-2.16 3.6s0 3.6 2.16 3.6h12.24v12.24c0 2.16 1.44 2.16 3.6 2.16s3.6 0 3.6-2.16v-12.24h12.24c2.16 0 2.16-1.44 2.16-3.6s0-3.6-2.16-3.6zM26.64 32.4h-24.48c-2.16 0-2.16 1.44-2.16 3.6s0 3.6 2.16 3.6h24.48c2.16 0 2.16-1.44 2.16-3.6s0-3.6-2.16-3.6zM26.64 50.4h-24.48c-2.16 0-2.16 1.44-2.16 3.6s0 3.6 2.16 3.6h24.48c2.16 0 2.16-1.44 2.16-3.6s0-3.6-2.16-3.6zM26.64 14.4h-24.48c-2.16 0-2.16 1.44-2.16 3.6s0 3.6 2.16 3.6h24.48c2.16 0 2.16-1.44 2.16-3.6s0-3.6-2.16-3.6z"></path>
</svg>
