<?xml version="1.0" encoding="utf-8"?>
<!-- Generated by IcoMoon.io -->
<!DOCTYPE svg PUBLIC "-//W3C//DTD SVG 1.1//EN" "http://www.w3.org/Graphics/SVG/1.1/DTD/svg11.dtd">
<svg version="1.1" xmlns="http://www.w3.org/2000/svg" xmlns:xlink="http://www.w3.org/1999/xlink" width="72" height="72" viewBox="0 0 72 72">
<path fill="#444" d="M37.292 28.026c-0.716-0.706-1.872-0.706-2.581 0l-10.31 10.105c-0.716 0.702-0.713 1.85 0 2.556 0.709 0.706 1.865 0.706 2.581 0l9.018-8.287 9.022 8.287c0.713 0.706 1.865 0.706 2.585 0 0.709-0.706 0.709-1.854 0-2.556l-10.314-10.105zM36 1.44c-19.087 0-34.56 15.473-34.56 34.56 0 19.091 15.473 34.56 34.56 34.56s34.56-15.469 34.56-34.56c0-19.087-15.473-34.56-34.56-34.56zM36 66.074c-16.614 0-30.074-13.464-30.074-30.074s13.46-30.074 30.074-30.074c16.607 0 30.074 13.464 30.074 30.074s-13.468 30.074-30.074 30.074z"></path>
</svg>
