<?xml version="1.0" encoding="utf-8"?>
<!-- Generated by IcoMoon.io -->
<!DOCTYPE svg PUBLIC "-//W3C//DTD SVG 1.1//EN" "http://www.w3.org/Graphics/SVG/1.1/DTD/svg11.dtd">
<svg version="1.1" xmlns="http://www.w3.org/2000/svg" xmlns:xlink="http://www.w3.org/1999/xlink" width="72" height="72" viewBox="0 0 72 72">
<path fill="#444" d="M45.018 31.313l-9.018 8.287-9.022-8.287c-0.713-0.706-1.865-0.706-2.585 0-0.709 0.706-0.709 1.854 0 2.556l10.31 10.105c0.716 0.706 1.872 0.706 2.581 0l10.31-10.105c0.716-0.702 0.713-1.85 0-2.556-0.709-0.706-1.861-0.706-2.578 0zM36 1.44c-19.087 0-34.56 15.473-34.56 34.56 0 19.091 15.473 34.56 34.56 34.56s34.56-15.469 34.56-34.56c0-19.087-15.473-34.56-34.56-34.56zM36 66.074c-16.614 0-30.074-13.464-30.074-30.074s13.46-30.074 30.074-30.074c16.607 0 30.074 13.464 30.074 30.074s-13.468 30.074-30.074 30.074z"></path>
</svg>
