<?xml version="1.0" encoding="utf-8"?>
<!-- Generated by IcoMoon.io -->
<!DOCTYPE svg PUBLIC "-//W3C//DTD SVG 1.1//EN" "http://www.w3.org/Graphics/SVG/1.1/DTD/svg11.dtd">
<svg version="1.1" xmlns="http://www.w3.org/2000/svg" xmlns:xlink="http://www.w3.org/1999/xlink" width="72" height="72" viewBox="0 0 72 72">
<path fill="#444" d="M36.004 28.080c-4.374 0-7.924 3.546-7.924 7.92s3.55 7.92 7.924 7.92c4.374 0 7.916-3.546 7.916-7.92s-3.542-7.92-7.916-7.92zM36.004 18.72c4.374 0 7.916-3.55 7.916-7.92s-3.542-7.92-7.916-7.92c-4.374 0-7.924 3.546-7.924 7.92s3.55 7.92 7.924 7.92zM36.004 53.28c-4.374 0-7.924 3.546-7.924 7.92s3.55 7.92 7.924 7.92c4.374 0 7.916-3.546 7.916-7.92s-3.542-7.92-7.916-7.92z"></path>
</svg>
