<?xml version="1.0" encoding="utf-8"?>
<!-- Generated by IcoMoon.io -->
<!DOCTYPE svg PUBLIC "-//W3C//DTD SVG 1.1//EN" "http://www.w3.org/Graphics/SVG/1.1/DTD/svg11.dtd">
<svg version="1.1" xmlns="http://www.w3.org/2000/svg" xmlns:xlink="http://www.w3.org/1999/xlink" width="72" height="72" viewBox="0 0 72 72">
<path fill="#444" d="M36 9c-17.397 0-31.5 14.103-31.5 31.5s14.103 31.5 31.5 31.5 31.5-14.103 31.5-31.5-14.103-31.5-31.5-31.5zM36 65.813c-13.98 0-25.313-11.333-25.313-25.313s11.333-25.313 25.313-25.313c13.98 0 25.313 11.333 25.313 25.313s-11.333 25.313-25.313 25.313zM65.727 20.192c1.128-1.972 1.773-4.257 1.773-6.692 0-7.456-6.044-13.5-13.5-13.5-4.347 0-8.213 2.055-10.682 5.245 9.273 1.915 17.241 7.397 22.409 14.947v0zM28.682 5.245c-2.469-3.19-6.335-5.245-10.682-5.245-7.456 0-13.5 6.044-13.5 13.5 0 2.435 0.645 4.72 1.773 6.692 5.168-7.55 13.136-13.032 22.409-14.947z"></path>
<path fill="#444" d="M36 40.5v-18h-4.5v22.5h18v-4.5z"></path>
</svg>
