<?xml version="1.0" standalone="no"?>
<!DOCTYPE svg PUBLIC "-//W3C//DTD SVG 1.1//EN" "http://www.w3.org/Graphics/SVG/1.1/DTD/svg11.dtd" >
<!--
2016-1-13: Created with FontForge (http://fontforge.org)
-->
<svg xmlns="http://www.w3.org/2000/svg" xmlns:xlink="http://www.w3.org/1999/xlink" version="1.1">
<metadata>
Created by FontForge 20150905 at Wed Jan 13 20:08:53 2016
 By sid
Copyright (c) 2016, sid
</metadata>
<defs>
<font id="icons" horiz-adv-x="512" >
  <font-face 
    font-family="icons"
    font-weight="400"
    font-stretch="normal"
    units-per-em="512"
    panose-1="2 0 5 3 0 0 0 0 0 0"
    ascent="448"
    descent="-64"
    bbox="-32 -64.0645 512.768 480"
    underline-thickness="25.6"
    underline-position="-51.2"
    unicode-range="U+0020-F2A8"
  />
    <missing-glyph />
    <glyph glyph-name="space" unicode=" " horiz-adv-x="200" 
 />
    <glyph glyph-name="uniF174" unicode="&#xf174;" 
d="M224 384h288v-64h-288v-8c0 -13.1836 -10.8164 -24 -24 -24h-80c-13.2158 0 -24 10.8164 -24 24v8h-96v64h96v8c0 13.2158 10.7842 24 24 24h80c13.1836 0 24 -10.7842 24 -24v-8zM128 320h64v64h-64v-64zM416 232v-8h96v-64h-96v-8c0 -13.1836 -10.8164 -24 -24 -24h-80
c-13.1836 0 -24 10.8164 -24 24v8h-288v64h288v8c0 13.1836 10.8164 24 24 24h80c13.1836 0 24 -10.8164 24 -24zM320 160h64v64h-64v-64zM224 72v-8h288v-64h-288v-8c0 -13.1836 -10.8164 -24 -24 -24h-80c-13.2158 0 -24 10.8164 -24 24v8h-96v64h96v8
c0 13.1836 10.7842 24 24 24h80c13.1836 0 24 -10.8164 24 -24zM128 0h64v64h-64v-64z" />
    <glyph glyph-name="uniF24D" unicode="&#xf24d;" 
d="M512 288l-256 -128l-256 128l256 128zM256 373.504l-171.04 -85.5039l171.04 -85.5039l171.04 85.5039zM460.736 217.632l51.2637 -25.6318l-256 -128l-256 128l51.2637 25.6318l204.736 -102.368zM460.736 121.632l51.2637 -25.6318l-256 -128l-256 128l51.2637 25.6318
l204.736 -102.368z" />
    <glyph glyph-name="uniF29A" unicode="&#xf29a;" 
d="M320.128 225.33h-0.0136719c5.09863 5.02051 13.29 5.02051 18.332 0c5.07031 -5.02051 5.0918 -13.1846 0 -18.1768l-73.3154 -71.8574c-5.04199 -5.02051 -13.2627 -5.02051 -18.3535 0l-73.3164 71.8574c-5.04102 4.99219 -5.04102 13.1562 0 18.1768
c5.12012 5.02051 13.3125 5.02051 18.3828 0l64.1562 -58.9297zM256 437.76c135.729 0 245.76 -110.03 245.76 -245.76c0 -135.758 -110.03 -245.76 -245.76 -245.76s-245.76 110.002 -245.76 245.76c0 135.729 110.03 245.76 245.76 245.76zM256 -21.8594
c118.087 0 213.859 95.7441 213.859 213.859s-95.7656 213.859 -213.859 213.859c-118.144 0 -213.859 -95.7441 -213.859 -213.859s95.7158 -213.859 213.859 -213.859z" />
    <glyph glyph-name="uniF1A7" unicode="&#xf1a7;" 
d="M256 448c141.376 0 256 -114.624 256 -256s-114.624 -256 -256 -256s-256 114.624 -256 256s114.624 256 256 256zM352 320c-17.6641 0 -32 -21.5039 -32 -48s14.3359 -48 32 -48s32 21.5039 32 48s-14.3359 48 -32 48zM160 320c-17.6641 0 -32 -21.5039 -32 -48
s14.3359 -48 32 -48s32 21.5039 32 48s-14.3359 48 -32 48zM256 0c83.4238 -0 152.704 69.8564 160 159.072c-46.8799 -27.0723 -102.016 -42.4639 -160 -42.4639s-113.12 15.4561 -160 42.5273c7.2959 -89.1836 76.5762 -159.136 160 -159.136z" />
    <glyph glyph-name="uniF12E" unicode="&#xf12e;" 
d="M256 352c-27.4561 0 -53.9844 -4.32031 -78.8477 -12.8643c-23.3604 -8.03223 -44.1602 -19.3594 -61.8242 -33.7275c-33.1201 -26.9121 -51.3281 -61.5039 -51.3281 -97.4082c0 -20.1602 5.59961 -39.6797 16.6396 -58.0801
c11.3926 -18.9443 28.4805 -36.2881 49.5039 -50.1123c15.168 -9.9834 25.376 -25.9834 28.0967 -43.9355c0.895508 -5.98438 1.47168 -12.0322 1.69531 -18.0479c3.74414 3.10352 7.36035 6.43164 10.9443 9.9834c12.0645 12.0645 28.3838 18.752 45.248 18.752
c2.68848 0 5.37598 -0.15918 8.06445 -0.511719c10.4961 -1.34375 21.1836 -2.01562 31.8398 -2.01562c27.4561 0 53.9834 4.31934 78.8477 12.8643c23.3604 8.03125 44.1602 19.3594 61.8242 33.7275c33.1201 26.9121 51.3281 61.5039 51.3281 97.4082
c0 35.9033 -18.2402 70.4961 -51.3281 97.4082c-17.6641 14.3359 -38.4639 25.6953 -61.8242 33.7275c-24.8643 8.54395 -51.3916 12.8643 -78.8477 12.8643zM256 416v0c141.376 0 256 -93.1201 256 -208s-114.624 -208 -256 -208
c-13.5684 0 -26.9121 0.864258 -39.9043 2.52832c-54.9756 -54.9766 -120.64 -64.8643 -184.096 -66.3047v13.4727c34.2725 16.7998 64 47.3594 64 82.3037c0 4.86426 -0.383789 9.66406 -1.08789 14.3359c-57.8877 38.1445 -94.9121 96.3838 -94.9121 161.664
c0 114.88 114.624 208 256 208z" />
    <glyph glyph-name="uniF26D" unicode="&#xf26d;" 
d="M490.592 303.936c13.7598 -53.8555 21.4082 -113.376 21.4082 -175.936s-7.64844 -122.08 -21.4082 -175.936c-71.8076 -10.3369 -151.168 -16.0645 -234.592 -16.0645s-162.784 5.72754 -234.592 16.0645c-13.7598 53.8555 -21.4082 113.376 -21.4082 175.936
s7.64844 122.08 21.4082 175.936c53.5039 7.68066 111.231 12.832 171.68 14.9443l-97.0879 97.0879l32 32l128 -128v0c10.624 0 21.2158 -0.0957031 31.7119 -0.288086l112.288 112.288l32 -32l-82.4316 -82.4316c49.3438 -2.5918 96.6074 -7.23242 141.023 -13.6006z
M431.936 10.6885c10.3369 35.9355 16.0645 75.584 16.0645 117.312s-5.72754 81.4082 -16.0645 117.312c-53.8555 6.88086 -113.376 10.6885 -175.936 10.6885s-122.08 -3.80762 -175.936 -10.6885c-10.3369 -35.9355 -16.0645 -75.584 -16.0645 -117.312
s5.72754 -81.4082 16.0645 -117.312c53.8555 -6.88086 113.376 -10.6885 175.936 -10.6885s122.08 3.80762 175.936 10.6885z" />
    <glyph glyph-name="uniF224" unicode="&#xf224;" 
d="M128 448h256v-64h-64v-448h-64v448h-64v-448h-64v256c-70.6885 0 -128 57.3115 -128 128s57.3115 128 128 128zM512 352v-256l-128 128z" />
    <glyph glyph-name="uniF178" unicode="&#xf178;" 
d="M384 128v64h-160v64h160v64l96 -96zM352 160v-128h-160v-96l-192 96v416h352v-160h-32v128h-256l128 -64v-288h128v96h32z" />
    <glyph glyph-name="uniF287" unicode="&#xf287;" 
d="M288 400c0 -26.4961 -21.5039 -48 -48 -48s-48 21.5039 -48 48s21.5039 48 48 48s48 -21.5039 48 -48zM359.488 192l0.0634766 0.0322266l-55.3281 71.8076l-19.2314 -44.8643l67.04 -122.943h-61.3438l-10.6562 -160h-32v160h-16v-160h-32l-10.6562 160h-61.3438
l67.04 122.912l-19.2324 44.8633l-55.3281 -71.8076l-24.5117 17.7598l66.6562 103.072c2.94336 4.51172 7.96777 7.2002 13.3438 7.2002h128c5.37598 0 10.4004 -2.7207 13.3438 -7.2002l66.6562 -103.072z" />
    <glyph glyph-name="uniF129" unicode="&#xf129;" 
d="M416 416l96 -96v-336c0 -8.83203 -7.16797 -16 -16 -16h-480c-8.83203 0 -16 7.16797 -16 16v336l96 96h320zM256 32l160 128h-96v96h-128v-96h-96zM77.248 352h357.504l-32 32h-293.504z" />
    <glyph glyph-name="uniF12A" unicode="&#xf12a;" 
d="M416 416l96 -96v-336c0 -8.83203 -7.16797 -16 -16 -16h-480c-8.83203 0 -16 7.16797 -16 16v336l96 96h320zM320 128h96l-160 128l-160 -128h96v-96h128v96zM77.248 352h357.472l-32 32h-293.472z" />
    <glyph glyph-name="uniF252" unicode="&#xf252;" 
d="M144 256c8.7998 0 16 -7.2002 16 -16v-288c0 -8.7998 -7.2002 -16 -16 -16h-96c-8.7998 0 -16 7.2002 -16 16v288c0 8.7998 7.2002 16 16 16h96zM144 -32v128h-96v-128h96zM304 320c8.7998 0 16 -7.2002 16 -16v-352c0 -8.7998 -7.2002 -16 -16 -16h-96
c-8.7998 0 -16 7.2002 -16 16v352c0 8.7998 7.2002 16 16 16h96zM304 -32v160h-96v-160h96zM464 384c8.7998 0 16 -7.2002 16 -16v-416c0 -8.7998 -7.2002 -16 -16 -16h-96c-8.7998 0 -16 7.2002 -16 16v416c0 8.7998 7.2002 16 16 16h96zM464 -32v192h-96v-192h96z" />
    <glyph glyph-name="uniF12F" unicode="&#xf12f;" 
d="M483.556 47.4736c0 -20.2236 11.5771 -37.7461 28.4443 -46.3076v-7.08203c-4.72168 -0.654297 -9.5293 -0.996094 -14.4502 -0.996094c-30.2363 0 -57.4854 12.6865 -76.7715 32.9961c-11.6621 -3.10059 -24.0068 -4.7793 -36.7783 -4.7793
c-70.6846 0 -128 50.9443 -128 113.778c0 62.833 57.3154 113.777 128 113.777s128 -50.9443 128 -113.777c0 -24.6045 -8.78906 -47.3604 -23.7227 -65.9912c-3.04395 -6.59961 -4.72168 -13.9092 -4.72168 -21.6465v0.0283203zM227.556 448
c123.762 0 224.427 -80.2705 227.47 -180.224c-21.8447 9.75586 -46.0508 14.9043 -71.0254 14.9043c-42.4678 0 -82.5742 -14.876 -112.953 -41.8701c-31.4873 -27.9893 -48.8389 -65.5361 -48.8389 -105.699c0 -19.8545 4.23828 -39.0547 12.3164 -56.8037
c-2.33203 -0.0566406 -4.66504 -0.0849609 -6.99707 -0.0849609c-12.0605 0 -23.9219 0.767578 -35.4707 2.24707c-48.8672 -48.8682 -107.235 -57.6572 -163.641 -58.9375v11.9756c30.4639 14.9326 56.8887 42.0977 56.8887 73.1592
c0 4.32324 -0.34082 8.58984 -0.966797 12.7432c-51.4561 33.9053 -84.3662 85.6738 -84.3662 143.701c0 102.115 101.888 184.889 227.556 184.889h0.0283203z" />
    <glyph glyph-name="uniF158" unicode="&#xf158;" 
d="M256 -64c-141.376 0 -256 114.624 -256 256s114.624 256 256 256s256 -114.624 256 -256s-114.624 -256 -256 -256zM256 400c-114.88 0 -208 -93.1201 -208 -208s93.1201 -208 208 -208s208 93.1201 208 208s-93.1201 208 -208 208zM400 320c8.7998 0 16 -7.2002 16 -16
v-48c0 -17.5996 -14.4004 -32 -32 -32h-64c-17.5996 0 -32 14.4004 -32 32h-64c0 -17.5996 -14.4004 -32 -32 -32h-64c-17.5996 0 -32 14.4004 -32 32v48c0 8.7998 7.2002 16 16 16h96c8.7998 0 16 -7.2002 16 -16v-16h64v16c0 8.7998 7.2002 16 16 16h96zM256 64
c46.5918 0 87.3916 24.8965 109.76 62.1436l27.4238 -16.4795c-27.9678 -46.5283 -78.9434 -77.6641 -137.216 -77.6641c-24.2236 0 -47.2002 5.4082 -67.7754 15.04l16.5752 27.6484c15.6807 -6.84863 32.9922 -10.6885 51.2002 -10.6885h0.0322266z" />
    <glyph glyph-name="uniF20D" unicode="&#xf20d;" 
d="M480 144c0 -2.49609 -0.576172 -4.95996 -1.69629 -7.16797l-36.416 -72.832h22.1123c8.83203 0 16 -7.16797 16 -16v-96c0 -8.83203 -7.16797 -16 -16 -16h-320c-8.83203 0 -16 7.16797 -16 16v96c0 8.83203 7.16797 16 16 16h22.7197l-119.584 109.024
c-0.12793 0.12793 -0.255859 0.223633 -0.383789 0.351562c-9.50391 9.15234 -14.752 21.4404 -14.752 34.624c0 26.4639 21.5361 48 48 48c8.44824 0 16.7363 -2.24023 24 -6.43164l88 -46.9121v197.344c0 26.4639 21.5361 48 48 48s48 -21.5361 48 -48v-114.752
c4.99219 1.79199 10.4004 2.75195 16 2.75195c12.2881 0 23.4883 -4.63965 32 -12.2559c8.51172 7.61621 19.7119 12.2559 32 12.2559c16.96 0 31.9043 -8.83203 40.4482 -22.1758c6.97559 3.93555 15.0078 6.17578 23.5518 6.17578c26.4639 0 48 -21.5361 48 -48v-80z
M448 16c0 8.83203 -7.16797 16 -16 16s-16 -7.16797 -16 -16s7.16797 -16 16 -16s16 7.16797 16 16zM448 147.776h-0.0322266v76.2236c0 8.83203 -7.16797 16 -16 16s-16 -7.16797 -16 -16s-7.16797 -16 -16 -16s-16 7.16797 -16 16v16c0 8.83203 -7.16797 16 -16 16
s-16 -7.16797 -16 -16s-7.16797 -16 -16 -16s-16 7.16797 -16 16s-7.16797 16 -16 16s-16 -7.16797 -16 -16s-7.16797 -16 -16 -16s-16 7.16797 -16 16v160c0 8.83203 -7.16797 16 -16 16s-16 -7.16797 -16 -16v-224c0 -5.63184 -2.97559 -10.8477 -7.77539 -13.7275
c-4.80078 -2.88086 -10.7842 -3.04004 -15.7441 -0.384766l-112 59.7119c-0.255859 0.12793 -0.543945 0.288086 -0.799805 0.448242c-2.33691 1.3125 -4.92871 1.95215 -7.64844 1.95215c-8.83203 0 -16 -7.16797 -16 -16c0 -4.35156 1.69629 -8.38379 4.7998 -11.4238
l145.408 -132.576h191.904z" />
    <glyph glyph-name="uniF194" unicode="&#xf194;" 
d="M288 320h224v-352h-512v416h224zM352 96v64h-192v-64h192z" />
    <glyph glyph-name="uniF1C7" unicode="&#xf1c7;" 
d="M0 448h128v-128h-128v128zM192 416h320v-64h-320v64zM0 256h128v-128h-128v128zM192 224h320v-64h-320v64zM0 64h128v-128h-128v128zM192 32h320v-64h-320v64z" />
    <glyph glyph-name="uniF273" unicode="&#xf273;" 
d="M224 160v128h-96l128 128l128 -128h-96v-128h-64zM320 232l192 -72v-128l-256 -96l-256 96v128l192 72v-49.3438l-146.528 -54.6562l210.528 -78.4961l210.528 78.4961l-146.528 54.6562v49.3438z" />
    <glyph glyph-name="uniF1D1" unicode="&#xf1d1;" 
d="M448 448l32 -288c0 -123.712 -100.288 -224 -224 -224s-224 100.288 -224 224l32 288h128l-32 -288c0 -53.0244 42.9756 -96 96 -96s96 42.9756 96 96l-32 288h128zM388.928 27.0723h0.0644531c35.04 35.0713 54.5596 81.5361 55.04 131.04l-18.0479 162.399h-55.5527
l17.376 -156.512l0.224609 -1.98438v-1.9834c0 -35.2646 -13.7285 -68.416 -38.6562 -93.3438c-24.9277 -24.9287 -58.0801 -38.6562 -93.3438 -38.6562c-35.2646 0 -68.416 13.7275 -93.3438 38.6562c-24.9287 24.9277 -38.6562 58.0791 -38.6562 93.3438v1.9834
l17.5996 158.496h-55.5518l-18.0479 -162.399c0.479492 -49.5039 19.9678 -95.9688 55.04 -131.04c35.4873 -35.5205 82.7197 -55.0723 132.928 -55.0723s97.4082 19.5518 132.928 55.0723z" />
    <glyph glyph-name="uniF28E" unicode="&#xf28e;" 
d="M115.612 254.77c11.165 11.4209 26.7021 12.3164 40.3486 0l100.046 -95.9219l100.047 95.9219c13.6455 12.3164 29.2119 11.4209 40.291 0c11.165 -11.3916 10.4463 -30.6416 0 -41.3438c-10.3965 -10.7021 -120.191 -115.25 -120.191 -115.25
c-5.55469 -5.70996 -12.8506 -8.57617 -20.1465 -8.57617s-14.5918 2.86621 -20.1953 8.57617c0 0 -109.746 104.548 -120.192 115.25c-10.4668 10.7021 -11.1641 29.9521 0 41.3438h-0.00683594z" />
    <glyph glyph-name="uniF1A5" unicode="&#xf1a5;" 
d="M505.088 -9.8877l0.0644531 -0.0322266c7.93555 -7.23242 9.21582 -18.4004 2.84766 -24.7998l-25.1836 -25.248c-6.40039 -6.40039 -17.5049 -5.12012 -24.7363 2.84766l-249.056 275.072l-14.1445 -14.1758c-10.4316 -10.4648 -23.9355 -16.1279 -37.6963 -16.9922
c-0.255859 -0.480469 -0.479492 -0.992188 -0.735352 -1.47266l-32.1279 -51.6475c-8.16016 -6.97559 -21.0879 -6.46387 -28.6719 1.15234l-89.5684 89.792c-7.61621 7.61523 -8.12793 20.5439 -1.15234 28.7354l51.4883 32.1924
c0.480469 0.288086 0.959961 0.511719 1.47168 0.736328c0.864258 13.792 6.49609 27.3271 16.96 37.792l48.7041 48.8633c10.4326 10.4639 23.9365 16.1279 37.6963 16.9922c0.223633 0.480469 0.448242 0.992188 0.704102 1.47168l32.1279 51.6484
c8.16016 6.97559 21.0879 6.46387 28.6719 -1.15234l89.5684 -89.792c7.61523 -7.61523 8.12793 -20.5439 1.15137 -28.7354l-51.4873 -32.1924c-0.480469 -0.288086 -0.959961 -0.511719 -1.47266 -0.736328c-0.863281 -13.792 -6.52734 -27.3281 -16.96 -37.792
l-12.7676 -12.7998z" />
    <glyph glyph-name="uniF108" unicode="&#xf108;" 
d="M240 -48l-240 240h144v256h192v-256h144z" />
    <glyph glyph-name="uniF10C" unicode="&#xf10c;" 
d="M73.376 329.376h0.0322266c-12.5117 12.4805 -12.5117 32.7676 0 45.248c6.24023 6.24023 14.4316 9.37598 22.624 9.37598c8.19141 0 16.3838 -3.13574 22.624 -9.37598l265.376 -265.376v114.752c0 17.6641 14.3359 32 32 32s32 -14.3359 32 -32v-192h-0.0322266
c0 -4.12793 -0.799805 -8.28809 -2.43164 -12.2559c-4.95996 -11.9365 -16.6406 -19.7441 -29.5684 -19.7441h-192c-17.6641 0 -32 14.3359 -32 32s14.3359 32 32 32h114.752z" />
    <glyph glyph-name="uniF109" unicode="&#xf109;" 
d="M368 -64h-368v368l128 -128l272 272l112 -112l-272 -272z" />
    <glyph glyph-name="uniF15C" unicode="&#xf15c;" 
d="M416 320v-224h96v-64h-96v-96h-64v96h-256v256h-96v64h96v96h64v-96h224l96 96l32 -32zM160 288v-160l160 160h-160zM192 96h160v160z" />
    <glyph glyph-name="uniF165" unicode="&#xf165;" 
d="M256 160l-128 128h96v128h64v-128h96zM372.352 212.352l139.648 -52.3516v-128l-256 -96l-256 96v128l139.648 52.3516l35.8711 -35.8711l-130.048 -48.4805l210.528 -78.4961l210.528 78.4961l-130.048 48.4805z" />
    <glyph glyph-name="uniF219" unicode="&#xf219;" 
d="M0 -64c64 192 231.488 512 512 512c-131.488 -105.504 -192 -352 -288 -352h-96l-96 -160h-32z" />
    <glyph glyph-name="uniF28F" unicode="&#xf28f;" 
d="M318.77 332.388c11.4209 -11.165 12.3164 -26.7021 0 -40.3486l-95.9219 -100.046l95.9219 -100.047c12.3164 -13.6455 11.4209 -29.2119 0 -40.291c-11.3916 -11.165 -30.6416 -10.4463 -41.3438 0c-10.7021 10.3965 -115.25 120.191 -115.25 120.191
c-5.70996 5.55469 -8.57617 12.8506 -8.57617 20.1465s2.86621 14.5918 8.57617 20.1953c0 0 104.548 109.746 115.25 120.192c10.7021 10.4668 29.9521 11.1641 41.3438 0v0.00683594z" />
    <glyph glyph-name="uniF144" unicode="&#xf144;" 
d="M329.376 73.376l-105.376 105.376v141.248h64v-114.752l86.624 -86.624zM256 448c141.376 0 256 -114.624 256 -256s-114.624 -256 -256 -256s-256 114.624 -256 256s114.624 256 256 256zM256 0c106.048 0 192 85.9521 192 192s-85.9521 192 -192 192
s-192 -85.9521 -192 -192s85.9521 -192 192 -192z" />
    <glyph glyph-name="uniF25A" unicode="&#xf25a;" 
d="M256 32c17.6641 0 32 -14.3359 32 -32v-32c0 -17.6641 -14.3359 -32 -32 -32s-32 14.3359 -32 32v32c0 17.6641 14.3359 32 32 32zM256 352c-17.6641 0 -32 14.3359 -32 32v32c0 17.6641 14.3359 32 32 32s32 -14.3359 32 -32v-32c0 -17.6641 -14.3359 -32 -32 -32z
M480 224c17.6641 0 32 -14.3359 32 -32s-14.3359 -32 -32 -32h-32c-17.6641 0 -32 14.3359 -32 32s14.3359 32 32 32h32zM96 192c0 -17.6641 -14.3359 -32 -32 -32h-32c-17.6641 0 -32 14.3359 -32 32s14.3359 32 32 32h32c17.6641 0 32 -14.3359 32 -32zM414.4 78.8477
l22.624 -22.624c12.4795 -12.4795 12.4795 -32.7676 0 -45.248c-12.4805 -12.4795 -32.7686 -12.4795 -45.248 0l-22.624 22.624c-12.4805 12.4805 -12.4805 32.7686 0 45.248c12.4795 12.4805 32.7676 12.4805 45.248 0zM97.5996 305.152l-22.624 22.624
c-12.5117 12.5117 -12.5117 32.7676 0 45.248c12.5127 12.4795 32.7686 12.5117 45.248 0l22.624 -22.624c12.5127 -12.5127 12.5127 -32.7686 0 -45.248c-12.5117 -12.4805 -32.7676 -12.5127 -45.248 0zM414.4 305.152c-12.4805 -12.5127 -32.7686 -12.5127 -45.248 0
c-12.4805 12.5117 -12.4805 32.7676 0 45.248l22.624 22.624c12.4795 12.5117 32.7676 12.5117 45.248 0c12.4795 -12.5127 12.4795 -32.7686 0 -45.248zM97.5996 78.8477c12.4805 12.4805 32.7686 12.4805 45.248 0c12.4805 -12.4795 12.5127 -32.7676 0 -45.248
l-22.624 -22.624c-12.5117 -12.4795 -32.7676 -12.4795 -45.248 0c-12.4795 12.4805 -12.5117 32.7686 0 45.248zM256 320c70.6885 0 128 -57.3115 128 -128s-57.3115 -128 -128 -128s-128 57.3115 -128 128s57.3115 128 128 128zM256 112c44.1924 0 80 35.8076 80 80
s-35.8076 80 -80 80s-80 -35.8076 -80 -80s35.8076 -80 80 -80z" />
    <glyph glyph-name="uniF229" unicode="&#xf229;" 
d="M247.968 -64c-24.6719 0 -45.5674 7.2002 -62.0479 21.4082c-16.6084 14.3037 -25.0234 31.0078 -25.0234 49.6641c0 9.05566 3.2959 16.8633 9.82324 23.2314c6.62402 6.46387 14.8799 9.88867 23.9365 9.88867c8.99219 0 17.0879 -3.2002 23.4238 -9.28027
c6.24023 -5.98438 9.4082 -13.9199 9.4082 -23.5518c0 -5.66406 -0.928711 -11.9043 -2.75195 -18.5605c-1.79199 -6.5918 -2.17676 -9.9834 -2.17676 -11.6475c0 -1.85645 0.448242 -4.03223 3.87207 -6.36816c6.36816 -4.41602 14.0488 -6.52832 23.4248 -6.52832
c11.2959 0 21.3438 3.93652 30.7832 12c9.28027 7.96777 13.792 16.1602 13.792 25.0244c0 9.85547 -2.62402 18.3994 -8.06348 26.1113c-9.18457 12.8643 -26.4326 27.9688 -51.2959 44.832c-39.9365 26.7207 -66.5283 49.8887 -81.2803 70.752
c-11.4561 16.3525 -17.248 33.9521 -17.248 52.3525c0 18.5283 6.08008 36.96 18.0479 54.8154c10.2402 15.2646 25.4082 29.0566 45.1201 41.0566c-10.5596 11.3594 -18.4639 22.0479 -23.5518 31.8398c-6.43262 12.3838 -9.69629 25.1836 -9.69629 38.0479
c0 23.9043 9.44043 44.5762 28.0957 61.4404c18.6562 16.8633 41.9209 25.4395 69.1523 25.4395c25.0557 0 46.1123 -7.04004 62.5918 -20.9277c16.6719 -14.0479 25.1201 -30.4639 25.1201 -48.7676c0 -9.34473 -3.48828 -17.6963 -10.3682 -24.832l-0.12793 -0.128906
c-4 -3.96777 -11.2959 -8.67188 -23.5195 -8.67188c-9.56836 0 -17.9521 3.13672 -24.2559 9.05664c-6.27246 5.8877 -9.47266 12.96 -9.47266 20.9922c0 3.45508 0.864258 8.70312 2.68848 16.4795c0.895508 3.67969 1.34375 7.07227 1.34375 10.1123
c0 5.18359 -1.85547 9.12012 -5.85547 12.4795c-4.12891 3.45605 -10.0488 5.15234 -18.0801 5.15234c-12.4482 0 -22.6562 -3.77637 -31.2002 -11.5518c-8.54395 -7.77637 -12.7686 -17.0566 -12.7686 -28.2568c0 -10.0791 2.27246 -18.3672 6.78418 -24.6719
c8.54395 -11.9678 23.3926 -24.8955 44.0967 -38.4316c42.0791 -27.2959 71.4551 -52.3516 87.2637 -74.4004c11.6797 -16.5752 17.5674 -34.1758 17.5674 -52.3838c0 -18.3037 -5.95117 -36.7354 -17.6631 -54.8477c-10.1123 -15.584 -25.376 -29.6318 -45.4404 -41.8564
c11.1035 -11.7441 18.9121 -22.0156 23.7764 -31.2637c6.04785 -11.4883 9.08789 -24.0322 9.08789 -37.2803c0 -24.832 -9.47266 -45.9199 -28.1279 -62.7197c-18.6562 -16.7998 -41.9199 -25.2803 -69.1523 -25.2803zM223.2 269.824
c-24.0967 -14.4639 -35.8398 -31.1045 -35.8398 -50.6562c0 -11.3916 3.26367 -21.5684 9.91992 -31.1357c9.95215 -13.9521 29.6318 -31.04 58.3994 -50.6562c12.1924 -8.28809 23.168 -16.3516 32.8008 -24.0322c24.5439 14.752 36.4795 31.168 36.4795 50.0801
c0 10.3037 -4.06348 21.376 -12.0957 32.96c-8.41602 12.0967 -26.4326 27.9043 -53.5684 46.9443c-14.1758 9.79199 -26.2715 18.6562 -36.0957 26.4639v0.0322266z" />
    <glyph glyph-name="uniF235" unicode="&#xf235;" 
d="M256 448c141.376 0 256 -114.624 256 -256s-114.624 -256 -256 -256s-256 114.624 -256 256s114.624 256 256 256zM155.328 282.688h-0.0322266c9.66406 9.66309 31.7119 9.66309 41.376 0c3.13574 -3.10449 7.23242 -4.67285 11.3281 -4.67285
s8.19238 1.53613 11.3281 4.67285c6.24023 6.23926 6.24023 16.3838 0 22.623c-22.2725 22.2725 -64.3525 22.2725 -86.624 0c-6.24023 -6.23926 -6.24023 -16.3838 0 -22.623c6.24023 -6.24023 16.3838 -6.24023 22.624 0zM256 32c35.3604 0 64 35.8076 64 80
s-28.6396 80 -64 80s-64 -35.8076 -64 -80s28.6396 -80 64 -80zM379.328 282.688h-0.0322266c6.24023 6.23926 6.24023 16.3838 0 22.623c-22.2715 22.2725 -64.3516 22.2725 -86.624 0c-6.24023 -6.23926 -6.24023 -16.3838 0 -22.623
c6.24023 -6.24023 16.3838 -6.24023 22.624 0c9.66406 9.66309 31.7119 9.66309 41.376 0c3.13574 -3.10449 7.23242 -4.67285 11.3281 -4.67285s8.19238 1.53613 11.3281 4.67285z" />
    <glyph glyph-name="uniF169" unicode="&#xf169;" 
d="M508.48 121.984c2.27148 -2.81641 3.51953 -6.33594 3.51953 -9.98438v-144c0 -17.6641 -14.3359 -32 -32 -32h-448c-17.6641 0 -32 14.3359 -32 32v144c0 3.61621 1.24805 7.13574 3.51953 9.98438l128 160c3.00879 3.80762 7.61621 6.01562 12.4805 6.01562h224
c4.83203 0 9.44043 -2.20801 12.4805 -6.01562zM480 96h-0.0322266v10.4004l-119.68 149.6h-208.608l-119.68 -149.6v-10.4004h112l64 -64h96l64 64h112z" />
    <glyph glyph-name="uniF143" unicode="&#xf143;" 
d="M464 384c8.83203 0 16 -7.16797 16 -16v-416c0 -8.83203 -7.16797 -16 -16 -16h-416c-8.83203 0 -16 7.16797 -16 16v416c0 8.83203 7.16797 16 16 16h144c0 35.3604 28.6396 64 64 64s64 -28.6396 64 -64h144zM256 416c-17.6641 0 -32 -14.3359 -32 -32
s14.3359 -32 32 -32s32 14.3359 32 32s-14.3359 32 -32 32zM448 -32v384h-64v-48c0 -8.83203 -7.16797 -16 -16 -16h-224c-8.83203 0 -16 7.16797 -16 16v48h-64v-384h384zM224 18.752l-102.624 118.624l29.248 29.248l73.376 -57.376l137.376 121.376l29.248 -29.248z" />
    <glyph glyph-name="uniF221" unicode="&#xf221;" 
d="M224 60.1924v-124.192l-192 192l192 192v-126.912c223.36 -5.24805 213.792 151.904 156.928 254.912c140.353 -151.712 110.561 -394.784 -156.928 -387.808z" />
    <glyph glyph-name="uniF157" unicode="&#xf157;" 
d="M256 448c141.376 0 256 -114.624 256 -256s-114.624 -256 -256 -256s-256 114.624 -256 256s114.624 256 256 256zM64 192c0 -106.048 85.9521 -192 192 -192v384c-106.048 0 -192 -85.9521 -192 -192z" />
    <glyph glyph-name="uniF29F" unicode="&#xf29f;" 
d="M256.028 248.32c31.1045 0 56.292 -25.2168 56.292 -56.3203s-25.1875 -56.3203 -56.292 -56.3203c-31.1035 0 -56.3486 25.2168 -56.3486 56.3203s25.2451 56.3203 56.3486 56.3203zM76.8281 248.32c31.1045 0 56.292 -25.2451 56.292 -56.3203
s-25.1875 -56.3203 -56.292 -56.3203c-31.1035 0 -56.3477 25.2168 -56.3477 56.3203s25.2441 56.3203 56.3477 56.3203zM435.229 248.32c31.1035 0 56.291 -25.2168 56.291 -56.3203s-25.1875 -56.3203 -56.291 -56.3203c-31.1045 0 -56.3486 25.2168 -56.3486 56.3203
s25.2441 56.3203 56.3486 56.3203z" />
    <glyph glyph-name="uniF1A1" unicode="&#xf1a1;" 
d="M444.576 358.112l-156.576 -199.296v-190.816h48c8.83203 0 16 -7.16797 16 -16s-7.16797 -16 -16 -16h-160c-8.83203 0 -16 7.16797 -16 16s7.16797 16 16 16h48v190.816l-156.576 199.296c-3.80762 4.7998 -4.51172 11.3594 -1.82422 16.8633
c2.68848 5.50488 8.28809 8.99219 14.4004 8.99219h352c6.14355 0 11.7441 -3.4873 14.4004 -8.99219c2.65527 -5.50391 1.95117 -12.0312 -1.82422 -16.8633zM399.072 352h0.03125h-286.176l50.2725 -64h185.6z" />
    <glyph glyph-name="uniF153" unicode="&#xf153;" 
d="M256 448c141.376 0 256 -114.624 256 -256s-114.624 -256 -256 -256s-256 114.624 -256 256s114.624 256 256 256zM48 192c0 -54.7842 21.1836 -104.608 55.8076 -141.76l88.1924 205.76l205.76 88.1924c-37.1514 34.624 -86.9756 55.8076 -141.76 55.8076
c-114.88 0 -208 -93.1201 -208 -208zM292.576 155.424l-73.1523 73.1523l-54.8799 -128.032zM256 -16c114.88 0 208 93.1201 208 208c0 54.7842 -21.1836 104.608 -55.8076 141.76l-88.1924 -205.76l-205.76 -88.1924c37.1514 -34.624 86.9756 -55.8076 141.76 -55.8076z
" />
    <glyph glyph-name="uniF1FC" unicode="&#xf1fc;" 
d="M256 448c141.376 0 256 -114.624 256 -256s-114.624 -256 -256 -256s-256 114.624 -256 256s114.624 256 256 256zM256 -16c114.88 0 208 93.1201 208 208s-93.1201 208 -208 208s-208 -93.1201 -208 -208s93.1201 -208 208 -208zM160 288h64v-192h-64v192zM288 288h64
v-192h-64v192z" />
    <glyph glyph-name="uniF185" unicode="&#xf185;" 
d="M192 256l160 -112l-160 -112v224zM458.912 333.472c18.9121 -25.792 21.0879 -38.3037 21.0879 -45.4717v-312c0 -22.0479 -17.9521 -40 -40 -40h-368c-22.0479 0 -40 17.9521 -40 40v432c0 22.0479 17.9521 40 40 40h248c7.16797 0 19.6797 -2.17578 45.4717 -21.0879
c15.1367 -11.1045 32.8643 -26.5918 49.8564 -43.584s32.4795 -34.7197 43.584 -49.8564zM392.672 360.672h-0.0322266c-15.3281 15.3604 -29.1836 27.3926 -40.6719 36.2881v-76.96h76.9922c-8.89551 11.4883 -20.9277 25.3115 -36.2881 40.6719zM448 -24v312h-112
c-8.83203 0 -16 7.16797 -16 16v112h-248c-4.32031 0 -8 -3.67969 -8 -8v-432c0 -4.35156 3.67969 -8 8 -8h368c4.35156 0 8 3.64844 8 8z" />
    <glyph glyph-name="uniF26F" unicode="&#xf26f;" 
d="M256 416c141.376 0 256 -114.624 256 -256c0 -76.4482 -33.5361 -145.088 -86.6885 -192l-42.3359 48c39.8721 35.168 65.0244 86.6562 65.0244 144c0 106.048 -85.9521 192 -192 192c-53.0244 0 -101.024 -21.4717 -135.776 -56.2236l71.7764 -71.7764h-192v192
l74.9756 -74.9756c46.3359 46.3037 110.336 74.9756 181.024 74.9756z" />
    <glyph glyph-name="uniF107" unicode="&#xf107;" 
d="M256 448c141.376 0 256 -114.624 256 -256s-114.624 -256 -256 -256s-256 114.624 -256 256s114.624 256 256 256zM288.032 257.728h-0.0322266c-0.0322266 -0.575195 -0.0644531 -1.15137 -0.0644531 -1.72754c0 -17.6641 14.3369 -32 32 -32
c17.6641 0 32 14.3359 32 32c0 8.41602 -3.26367 16.0645 -8.5752 21.792c9.21582 4.63965 19.6797 8.44824 28.4795 10.6885c8.57617 2.14355 13.792 10.8154 11.6484 19.3916c-2.14453 8.57617 -10.8164 13.792 -19.3926 11.6475
c-0.704102 -0.191406 -17.8877 -4.54395 -35.2637 -13.2158c-18.208 -9.08789 -39.7764 -24.8633 -40.7998 -48.5762zM128.48 307.872h-0.0322266c-2.14453 -8.57617 3.07129 -17.248 11.6475 -19.3916c8.83203 -2.24023 19.2646 -6.08008 28.4805 -10.6885
c-5.3125 -5.69629 -8.57617 -13.376 -8.57617 -21.792c0 -17.6641 14.3359 -32 32 -32s32 14.3359 32 32c0 0.576172 -0.0322266 1.15234 -0.0644531 1.72754c-1.02344 23.7441 -22.624 39.4883 -40.7998 48.5762c-17.376 8.7041 -34.5273 13.0244 -35.2637 13.2158
c-8.57617 2.14453 -17.248 -3.07129 -19.3916 -11.6475zM352.064 57.6318l41.1514 24.7041c-27.9678 46.5283 -78.9434 77.6641 -137.216 77.6641s-109.248 -31.1357 -137.216 -77.6641l41.1514 -24.7041c19.6162 32.5762 55.2646 54.3682 96.0645 54.3682
s76.4805 -21.792 96.0645 -54.3682z" />
    <glyph glyph-name="uniF259" unicode="&#xf259;" 
d="M97.0244 32h-56.832l96 320h111.615l96 -320h-56.7998l-28.7998 96h-132.384zM173.824 288l-28.7998 -96h93.9834l-28.7998 96h-36.3838zM512 352l-80 -128l-80 128h160zM432 32c14.1758 0 26.9443 -6.17578 35.7441 -16c7.61621 -8.51172 12.2559 -19.7119 12.2559 -32
c0 -26.4639 -21.5361 -48 -48 -48h-64c-8.83203 0 -16 7.16797 -16 16s7.16797 16 16 16h64c8.83203 0 16 7.16797 16 16s-7.16797 16 -16 16h-32c-14.1758 0 -26.9443 6.17578 -35.7441 16c-7.61621 8.51172 -12.2559 19.7119 -12.2559 32c0 26.4639 21.5361 48 48 48h64
c8.83203 0 16 -7.16797 16 -16s-7.16797 -16 -16 -16h-64c-8.83203 0 -16 -7.16797 -16 -16s7.16797 -16 16 -16h32z" />
    <glyph glyph-name="uniF228" unicode="&#xf228;" 
d="M496.128 12.2881l-0.0322266 -0.0322266c19.6162 -17.6318 21.2803 -46.4961 3.68066 -64.0957c-17.6006 -17.6006 -46.4326 -15.9365 -64.0967 3.67969l-103.136 121.28c-11.2959 12.5439 -16.4795 25.9521 -15.9678 36.7676
c-33.5361 -28.6396 -77.0244 -45.9199 -124.576 -45.9199c-106.048 0 -192 85.9521 -192 192s85.9521 192 192 192s192 -85.9521 192 -192c0 -47.5518 -17.2803 -91.04 -45.9199 -124.576c10.8164 0.480469 24.2236 -4.67188 36.7676 -15.9678zM192 128
c70.6885 0 128 57.3115 128 128s-57.3115 128 -128 128s-128 -57.3115 -128 -128s57.3115 -128 128 -128z" />
    <glyph glyph-name="uniF207" unicode="&#xf207;" 
d="M96 384l320 -192l-320 -192v384z" />
    <glyph glyph-name="uniF206" unicode="&#xf206;" 
d="M256 448c141.376 0 256 -114.624 256 -256s-114.624 -256 -256 -256s-256 114.624 -256 256s114.624 256 256 256zM256 -16c114.88 0 208 93.1201 208 208s-93.1201 208 -208 208s-208 -93.1201 -208 -208s93.1201 -208 208 -208zM192 304l192 -112l-192 -112v224z" />
    <glyph glyph-name="uniF182" unicode="&#xf182;" 
d="M345.12 212.16l0.0322266 -0.0322266v0c29.9834 14.7842 67.8721 17.3438 96.6074 -1.72754c-34.4316 2.84766 -72.4795 -2.30469 -96.4795 -29.8564c-25.0879 26.1445 -63.0078 31.8721 -97.5684 28.5762c28.416 20.2559 67.0723 17.376 97.4082 3.04004z
M332.832 145.12h0.0322266c24.6719 0.160156 51.1357 -2.49609 71.9678 -16.832c-34.3359 -0.416016 -69.8564 -1.98438 -101.408 -17.248c-24.0322 -10.8164 -44.96 -28.1924 -59.8398 -49.9521c-35.9678 32.832 -86.6875 44.6396 -134.272 39.9043
c-13.0234 -1.69629 -25.8877 -4.92773 -39.0391 -5.4082c45.6318 38.0479 113.407 42.2725 167.008 19.4883c28.3193 18.4639 61.376 30.8477 95.5518 30.0479zM458.912 333.472v0c18.9121 -25.792 21.0879 -38.3037 21.0879 -45.4717v-312c0 -22.0479 -17.9521 -40 -40 -40
h-368c-22.0479 0 -40 17.9521 -40 40v432c0 22.0479 17.9521 40 40 40h248c7.16797 0 19.6797 -2.17578 45.4717 -21.0879c15.1367 -11.1045 32.8643 -26.5918 49.8564 -43.584s32.4795 -34.7197 43.584 -49.8564zM392.672 360.672h-0.0322266v0
c-15.3281 15.3604 -29.1836 27.3926 -40.6719 36.2881v-76.96h76.9922c-8.89551 11.4883 -20.9277 25.3115 -36.2881 40.6719zM448 -24v312h-112c-8.83203 0 -16 7.16797 -16 16v112h-248c-4.32031 0 -8 -3.67969 -8 -8v-432c0 -4.35156 3.67969 -8 8 -8h368
c4.35156 0 8 3.64844 8 8z" />
    <glyph glyph-name="uniF28B" unicode="&#xf28b;" 
d="M496.128 12.2881l-0.0322266 -0.0322266c19.6162 -17.6318 21.2803 -46.4961 3.68066 -64.0957c-17.6006 -17.6006 -46.4326 -15.9365 -64.0967 3.67969l-103.136 121.28c-11.2959 12.5439 -16.4795 25.9521 -15.9678 36.7676
c-33.5361 -28.6396 -77.0244 -45.9199 -124.576 -45.9199c-106.048 0 -192 85.9521 -192 192s85.9521 192 192 192s192 -85.9521 192 -192c0 -47.5518 -17.2803 -91.04 -45.9199 -124.576c10.8164 0.480469 24.2236 -4.67188 36.7676 -15.9678zM192 128
c70.6885 0 128 57.3115 128 128s-57.3115 128 -128 128s-128 -57.3115 -128 -128s57.3115 -128 128 -128zM224 352v-64h64v-64h-64v-64h-64v64h-64v64h64v64h64z" />
    <glyph glyph-name="uniF22D" unicode="&#xf22d;" 
d="M336 0h-160c-8.83203 0 -16 7.16797 -16 16v176h-64c-6.46387 0 -12.3203 3.9043 -14.7842 9.8877c-2.46387 5.98438 -1.12012 12.8643 3.45605 17.4404l160 160c6.24023 6.24023 16.3838 6.24023 22.624 0l160 -160c4.57617 -4.57617 5.95215 -11.4561 3.45605 -17.4404
c-2.49609 -5.9834 -8.32031 -9.8877 -14.7842 -9.8877h-64v-176c0 -8.83203 -7.16797 -16 -16 -16h0.0322266zM192 32h128v176c0 8.83203 7.16797 16 16 16h41.376l-121.376 121.376l-121.376 -121.376h41.376c8.83203 0 16 -7.16797 16 -16v-176z" />
    <glyph glyph-name="uniF22B" unicode="&#xf22b;" 
d="M432 96c44.1924 0 80 -35.8076 80 -80s-35.8076 -80 -80 -80s-80 35.8076 -80 80c0 4.32031 0.320312 8.54395 0.992188 12.6719l-215.488 107.744c-14.5283 -15.04 -34.9121 -24.416 -57.5039 -24.416c-44.1924 0 -80 35.8076 -80 80s35.8076 80 80 80
c22.5918 0 42.9443 -9.37598 57.5039 -24.416l215.488 107.744c-0.640625 4.12793 -0.992188 8.35156 -0.992188 12.6719c0 44.1924 35.8076 80 80 80s80 -35.8076 80 -80s-35.8076 -80 -80 -80c-22.5918 0 -42.9443 9.37598 -57.5039 24.416l-215.488 -107.744
c0.671875 -4.12793 1.02441 -8.35156 1.02441 -12.6719s-0.352539 -8.54395 -1.02441 -12.6719l215.488 -107.744c14.5596 15.04 34.9121 24.416 57.5039 24.416z" />
    <glyph glyph-name="uniF2A2" unicode="&#xf2a2;" 
d="M256.028 238.08c-31.1035 0 -56.3486 25.2158 -56.3486 56.3203c0 31.1035 25.2451 56.3193 56.3486 56.3193c31.1045 0 56.292 -25.2441 56.292 -56.3193c0 -31.0762 -25.1875 -56.3203 -56.292 -56.3203zM256.028 145.92c31.1045 0 56.292 -25.2158 56.292 -56.3203
c0 -31.1035 -25.1875 -56.3193 -56.292 -56.3193c-31.1035 0 -56.3486 25.2158 -56.3486 56.3193c0 31.1045 25.2451 56.3203 56.3486 56.3203z" />
    <glyph glyph-name="uniF220" unicode="&#xf220;" 
d="M288 323.808v124.192l192 -192l-192 -192v126.912c-223.36 5.24805 -213.792 -151.904 -156.928 -254.912c-140.353 151.712 -110.561 394.784 156.928 387.808z" />
    <glyph glyph-name="uniF232" unicode="&#xf232;" 
d="M384 96v80l112 -112l-112 -112v80h-64c-8.48047 0 -16.6084 3.36035 -22.624 9.37598l-89.376 89.376l-89.376 -89.376c-5.98438 -6.01562 -14.1436 -9.37598 -22.624 -9.37598h-96v64h82.752l80 80l-80 80h-82.752v64h96c8.48047 0 16.6084 -3.36035 22.624 -9.37598
l89.376 -89.376l89.376 89.376c5.98438 6.01562 14.1436 9.37598 22.624 9.37598h64v80l112 -112l-112 -112v80h-50.752l-80 -80l80 -80h50.752z" />
    <glyph glyph-name="uniF14D" unicode="&#xf14d;" 
d="M240 416c132.544 0 240 -107.456 240 -240s-107.456 -240 -240 -240s-240 107.456 -240 240s107.456 240 240 240zM240 -16c106.048 0 192 85.9521 192 192s-85.9521 192 -192 192s-192 -85.9521 -192 -192s85.9521 -192 192 -192zM256 192h64v-128h-64v-32h-32v32h-64
v32h64v64h-64v128h64v32h32v-32h64v-32h-64v-64zM224 192v64h-32v-64h32zM288 96v64h-32v-64h32z" />
    <glyph glyph-name="uniF1FA" unicode="&#xf1fa;" 
d="M0 416h512v-64h-512v64zM192 320h320v-64h-320v64zM192 128h320v-64h-320v64zM0 224h512v-64h-512v64zM0 32h512v-64h-512v64z" />
    <glyph glyph-name="uniF27A" unicode="&#xf27a;" horiz-adv-x="511" 
d="M128.032 352c0 53.0244 42.9756 96 96 96s96 -42.9756 96 -96s-42.9756 -96 -96 -96s-96 42.9756 -96 96zM352.064 224h-0.0322266c63.9678 0 63.9678 -43.0078 63.9678 -96v-160h-384v160c0 52.9922 0 96 63.9678 96h17.7285l99.5518 -202.112l-37.2158 186.112l48 48
l48 -48l-37.2158 -186.112l99.5518 202.112h17.6963z" />
    <glyph glyph-name="uniF127" unicode="&#xf127;" 
d="M128 384h320v-448l-160 160l-160 -160v448zM384 448v-32h-288v-384l-32 -32v448h320z" />
    <glyph glyph-name="uniF21F" unicode="&#xf21f;" 
d="M0 160h0.0322266c0 141.376 114.624 256 256 256c70.6875 0 134.688 -28.6396 181.023 -74.9756l74.9766 74.9756v-192h-192l71.7754 71.7764c-34.752 34.7197 -82.752 56.2236 -135.775 56.2236c-106.048 0 -192 -85.9521 -192 -192
c0 -57.3438 25.1201 -108.832 64.9922 -144l-42.3359 -48c-53.1523 46.9121 -86.6885 115.552 -86.6885 192z" />
    <glyph glyph-name="uniF146" unicode="&#xf146;" 
d="M512 119.232h-0.0322266c0 -48.1289 -38.9434 -87.1367 -87.0078 -87.2324h-328.128c-53.5039 0 -96.8643 43.3916 -96.8643 96.9277s43.3604 96.9287 96.8643 96.9287c5.8877 0 11.6797 -0.544922 17.2803 -1.56836
c-0.448242 3.10352 -0.671875 6.24023 -0.671875 9.47168c0 36.8965 29.9199 66.8486 66.8154 66.8486c21.5039 0 40.6406 -10.1768 52.8643 -25.9844c21.792 27.6162 55.5518 45.376 93.4395 45.376c64.7041 0 117.312 -51.6797 118.944 -116.032
c38.1445 -9.2793 66.4961 -43.6797 66.4961 -84.7354z" />
    <glyph glyph-name="uniF179" unicode="&#xf179;" 
d="M256 352c111.648 0 208.448 -65.0244 256 -160c-47.5518 -94.9756 -144.352 -160 -256 -160s-208.448 65.0244 -256 160c47.5518 94.9756 144.352 160 256 160zM382.24 267.136h-0.0322266v0c-1.95215 1.24805 -3.93555 2.46387 -5.91992 3.64844
c4.99219 -13.6641 7.71191 -28.416 7.71191 -43.8086c0 -70.6875 -57.3115 -128 -128 -128s-128 57.3125 -128 128c0 15.3926 2.71973 30.1445 7.71191 43.8086c-1.98438 -1.18457 -3.96777 -2.40039 -5.91992 -3.64844
c-30.0801 -19.168 -55.584 -44.8633 -74.7197 -75.1357c19.1357 -30.2402 44.6396 -55.9355 74.7197 -75.1357c37.8242 -24.1279 81.4717 -36.8643 126.24 -36.8643c44.7676 0 88.416 12.7676 126.208 36.8643c30.0801 19.168 55.584 44.8633 74.7197 75.1357
c-19.1357 30.2402 -44.6396 55.9355 -74.7197 75.1357zM256 240c0 26.4961 -21.5039 48 -48 48s-48 -21.5039 -48 -48s21.5039 -48 48 -48s48 21.5039 48 48z" />
    <glyph glyph-name="uniF106" unicode="&#xf106;" 
d="M256 -64c-141.376 0 -256 114.624 -256 256s114.624 256 256 256s256 -114.624 256 -256s-114.624 -256 -256 -256zM256 400c-114.88 0 -208 -93.1201 -208 -208s93.1201 -208 208 -208s208 93.1201 208 208s-93.1201 208 -208 208zM352.064 57.6318
c-19.584 32.5762 -55.2646 54.3682 -96.0645 54.3682s-76.4482 -21.792 -96.0645 -54.3682l-41.1514 24.7041c27.9678 46.5283 78.9434 77.6641 137.216 77.6641s109.248 -31.1357 137.216 -77.6641zM383.52 307.872c2.14453 -8.57617 -3.07129 -17.248 -11.6475 -19.3916
c-8.7998 -2.24023 -19.2637 -6.04883 -28.4805 -10.6885c5.3125 -5.72754 8.57617 -13.376 8.57617 -21.792c0 -17.6641 -14.3359 -32 -32 -32s-32 14.3359 -32 32c0 0.576172 0.0322266 1.15234 0.0644531 1.72754c1.02344 23.7129 22.5918 39.4883 40.7998 48.5762
c17.376 8.67188 34.5596 13.0244 35.2637 13.2158c8.57617 2.14453 17.248 -3.07129 19.3926 -11.6475h0.03125zM128.48 307.872c2.14355 8.57617 10.8154 13.792 19.3916 11.6475c0.736328 -0.191406 17.8877 -4.51172 35.2637 -13.2158
c18.1758 -9.08789 39.7764 -24.832 40.7998 -48.5762c0.0322266 -0.575195 0.0644531 -1.15137 0.0644531 -1.72754c0 -17.6641 -14.3359 -32 -32 -32s-32 14.3359 -32 32c0 8.41602 3.26367 16.0957 8.57617 21.792c-9.21582 4.6084 -19.6484 8.44824 -28.4805 10.6885
c-8.57617 2.14355 -13.792 10.8154 -11.6475 19.3916h0.0322266z" />
    <glyph glyph-name="uniF1ED" unicode="&#xf1ed;" 
d="M256 448c141.376 0 256 -114.624 256 -256s-114.624 -256 -256 -256s-256 114.624 -256 256s114.624 256 256 256zM256 -16c114.88 0 208 93.1201 208 208s-93.1201 208 -208 208s-208 -93.1201 -208 -208s93.1201 -208 208 -208zM288 192l-128 -96v192zM352 288v-192
h-64v192h64z" />
    <glyph glyph-name="uniF137" unicode="&#xf137;" 
d="M152 144c0 57.4404 46.5596 104 104 104s104 -46.5596 104 -104s-46.5596 -104 -104 -104s-104 46.5596 -104 104zM480 320c17.5996 0 32 -14.4004 32 -32v-288c0 -17.5996 -14.4004 -32 -32 -32h-448c-17.5996 0 -32 14.4004 -32 32v288c0 17.5996 14.4004 32 32 32h112
c8 32 16 64 48 64h128c32 0 40 -32 48 -64h112zM256 1.98438c78.4316 0 142.016 63.584 142.016 142.016s-63.584 142.016 -142.016 142.016s-142.016 -63.584 -142.016 -142.016s63.584 -142.016 142.016 -142.016zM480 224v32h-64v-32h64z" />
    <glyph glyph-name="uniF1E8" unicode="&#xf1e8;" 
d="M480 448h32v-368c0 -44.1924 -50.1436 -80 -112 -80s-112 35.8076 -112 80s50.1436 80 112 80c31.3281 0 59.6797 -9.18359 80 -24.0322v184.032l-256 -56.8965v-247.104c0 -44.1924 -50.1436 -80 -112 -80s-112 35.8076 -112 80s50.1436 80 112 80
c31.3281 0 59.6797 -9.18359 80 -24.0322v312.032z" />
    <glyph glyph-name="uniF288" unicode="&#xf288;" 
d="M256 -64c-141.376 0 -256 114.624 -256 256s114.624 256 256 256s256 -114.624 256 -256s-114.624 -256 -256 -256zM256 400c-114.88 0 -208 -93.1201 -208 -208s93.1201 -208 208 -208s208 93.1201 208 208s-93.1201 208 -208 208zM372.864 147.2l11.2314 -38.4004
l-218.496 -64l-11.2314 38.4004zM128 288c0 17.6641 14.3359 32 32 32s32 -14.3359 32 -32s-14.3359 -32 -32 -32s-32 14.3359 -32 32zM320 288c0 17.6641 14.3359 32 32 32s32 -14.3359 32 -32s-14.3359 -32 -32 -32s-32 14.3359 -32 32z" />
    <glyph glyph-name="uniF135" unicode="&#xf135;" 
d="M192 416c17.5996 0 32 -14.4004 32 -32v-160c0 -17.5996 -14.4004 -32 -32 -32h-160c-17.5996 0 -32 14.4004 -32 32v160c0 17.5996 14.4004 32 32 32h160zM192 288v32h-160v-32h160zM448 416c17.5996 0 32 -14.4004 32 -32v-416c0 -17.5996 -14.4004 -32 -32 -32h-160
c-17.5996 0 -32 14.4004 -32 32v416c0 17.5996 14.4004 32 32 32h160zM448 128v32h-160v-32h160zM448 224v32h-160v-32h160zM192 160c17.5996 0 32 -14.4004 32 -32v-160c0 -17.5996 -14.4004 -32 -32 -32h-160c-17.5996 0 -32 14.4004 -32 32v160
c0 17.5996 14.4004 32 32 32h160zM192 32v32h-64v64h-32v-64h-64v-32h64v-64h32v64h64z" />
    <glyph glyph-name="uniF2A7" unicode="&#xf2a7;" 
d="M148.999 235.001h107.001v-107.001h-107.001v107.001zM404.999 43.001v233.998h-297.998v-233.998h297.998zM404.999 384c11.3353 0 21.3359 -4.33301 30.002 -12.999s12.999 -18.6667 12.999 -30.002v-297.998c0 -11.3353 -4.33301 -21.3359 -12.999 -30.002
s-18.6667 -12.999 -30.002 -12.999h-297.998c-11.9987 0 -22.1654 4.33301 -30.5 12.999c-8.33398 8.66602 -12.501 18.6667 -12.501 30.002v297.998c0 11.3353 4.16699 21.3359 12.501 30.002c8.33464 8.66602 18.5013 12.999 30.5 12.999h20.999v43.001h43.001v-43.001
h169.998v43.001h43.001v-43.001h20.999z" />
    <glyph glyph-name="uniF1FF" unicode="&#xf1ff;" 
d="M432 448c44.1924 0 80 -35.8076 80 -80c0 -18.0156 -5.95215 -34.624 -16 -48l-32 -32l-112 112l32 32c13.376 10.0479 29.9844 16 48 16zM32 80l296 296l112 -112l-296 -296l-144 -32zM357.792 266.208l-27.584 27.584l-224 -224l27.584 -27.584z" />
    <glyph glyph-name="uniF294" unicode="&#xf294;" 
d="M168.498 137.188c-6.94043 -6.8623 -18.1475 -6.8623 -25.0381 0s-6.96191 17.9482 0 24.8037l100.046 98.0479c6.91211 6.8623 18.0977 6.8623 25.0596 0l100.046 -98.0479c6.91211 -6.83398 6.91211 -17.9482 0 -24.8037c-6.94043 -6.8623 -18.1475 -6.8623 -25.0596 0
l-87.5518 80.4121z" />
    <glyph glyph-name="uniF289" unicode="&#xf289;" 
d="M256 448c141.376 0 256 -114.624 256 -256s-114.624 -256 -256 -256s-256 114.624 -256 256s114.624 256 256 256zM352 320c-17.6641 0 -32 -14.3359 -32 -32s14.3359 -32 32 -32s32 14.3359 32 32s-14.3359 32 -32 32zM128 288c0 -17.6641 14.3359 -32 32 -32
s32 14.3359 32 32s-14.3359 32 -32 32s-32 -14.3359 -32 -32zM165.632 44.7998l218.496 64l-11.2314 38.4004l-218.496 -64z" />
    <glyph glyph-name="uniF201" unicode="&#xf201;" 
d="M352 128c32 32 128 -64 128 -96s-96 -96 -96 -96c-64 0 -193.76 65.7598 -256 128s-128 192 -128 256c0 0 64 96 96 96s128 -96 96 -128s-64 -32 -64 -64s32 -64 64 -96s64 -64 96 -64s32 32 64 64z" />
    <glyph glyph-name="uniF190" unicode="&#xf190;" 
d="M0 448h64v-512h-64v512zM416 126.496c-41.3115 0 -77.2803 9.98438 -96 24.7363v256c18.7197 -14.752 54.6885 -24.7363 96 -24.7363s77.2803 9.98438 96 24.7363v-256c-18.7197 -14.752 -54.6885 -24.7363 -96 -24.7363zM304 431.744v-256
c-23.4561 9.95215 -57.7598 16.2559 -96 16.2559c-48.1924 0 -90.1758 -9.98438 -112 -24.7363v256c21.8242 14.752 63.8076 24.7363 112 24.7363c38.2402 0 72.5439 -6.27246 96 -16.2559z" />
    <glyph glyph-name="uniF134" unicode="&#xf134;" 
d="M512 233.376v0.0322266c0 -100.48 -29.376 -181.984 -65.7275 -182.624c0.15918 -0.0322266 0.287109 -0.0322266 0.447266 -0.0322266h-41.4717s-97.376 73.1836 -237.6 101.888c-4.28809 22.624 -7.00879 49.6328 -7.00879 80.7363
c0 31.1045 2.7207 58.0801 7.00879 80.7363c140.191 28.7041 237.6 101.888 237.6 101.888h41.4717h-0.447266c36.3193 -0.639648 65.7275 -82.1758 65.7275 -182.624zM432.416 78.3682c4.7041 0 9.79199 4.86426 12.3838 7.77539
c6.30371 7.00879 12.416 17.9521 17.6006 31.6484c11.6475 30.5918 18.0479 71.6484 18.0479 115.552c0 43.9043 -6.43262 84.9287 -18.0479 115.553c-5.2168 13.6953 -11.2969 24.6396 -17.6006 31.6797c-2.62402 2.91211 -7.67969 7.77539 -12.3838 7.77539
s-9.79199 -4.86328 -12.3838 -7.77539c-6.30469 -7.04004 -12.416 -17.9844 -17.6006 -31.6797c-11.6475 -30.5928 -18.0479 -71.6484 -18.0479 -115.553c0 -43.9033 6.43262 -84.9277 18.0479 -115.552c5.2168 -13.6641 11.2959 -24.6084 17.6006 -31.6484
c2.62402 -2.91113 7.67969 -7.77539 12.3838 -7.77539zM125.92 233.376v0.0644531c0 -25.9844 1.91992 -51.2324 5.53613 -74.5605c-23.6797 3.26367 -44.4805 5.15234 -70.1758 5.15234h-33.5361l-27.7441 47.3281v44.0957l27.7441 47.3281h33.5361
c25.6953 0 46.4961 1.8877 70.1758 5.15137c-3.61621 -23.3594 -5.53613 -48.5752 -5.53613 -74.5596zM184.064 126.912v0.0322266l61.6318 -114.593c4.06348 -7.58398 0.863281 -16.3516 -7.10449 -19.5518l-59.2637 -23.7119
c-7.96777 -3.2002 -16.2246 0.992188 -18.3359 9.3125l-40.9277 160.768zM432.416 173.632c-1.82422 0 -3.77637 1.8877 -4.76758 3.00781c-2.43262 2.7207 -4.76855 6.94434 -6.78418 12.1924c-4.48047 11.8076 -6.94434 27.6162 -6.94434 44.5439
s2.46387 32.7363 6.94434 44.5439c2.01562 5.28027 4.35156 9.50391 6.78418 12.1924c0.991211 1.12012 2.94336 3.00781 4.76758 3.00781s3.77637 -1.8877 4.76758 -3.00781c2.43262 -2.7207 4.76855 -6.94434 6.78418 -12.1924
c4.48047 -11.8076 6.94434 -27.6162 6.94434 -44.5439s-2.46387 -32.7363 -6.94434 -44.5439c-2.01562 -5.28027 -4.35156 -9.50391 -6.78418 -12.1924c-0.991211 -1.12012 -2.94336 -3.00781 -4.76758 -3.00781z" />
    <glyph glyph-name="uniF236" unicode="&#xf236;" 
d="M256 -64c-141.376 0 -256 114.624 -256 256s114.624 256 256 256s256 -114.624 256 -256s-114.624 -256 -256 -256zM256 400c-114.88 0 -208 -93.1201 -208 -208s93.1201 -208 208 -208s208 93.1201 208 208s-93.1201 208 -208 208zM128 288c0 17.6641 14.3359 32 32 32
s32 -14.3359 32 -32s-14.3359 -32 -32 -32s-32 14.3359 -32 32zM320 288c0 17.6641 14.3359 32 32 32s32 -14.3359 32 -32s-14.3359 -32 -32 -32s-32 14.3359 -32 32zM352.064 134.368l41.1514 -24.7041c-27.9678 -46.5283 -78.9434 -77.6641 -137.216 -77.6641
s-109.216 31.1357 -137.216 77.6641l41.1514 24.7041c19.584 -32.5762 55.2646 -54.3682 96.0645 -54.3682s76.4482 21.792 96.0645 54.3682z" />
    <glyph glyph-name="uniF138" unicode="&#xf138;" 
d="M256 448c141.376 0 256 -114.624 256 -256s-114.624 -256 -256 -256s-256 114.624 -256 256s114.624 256 256 256zM256 -16c114.88 0 208 93.1201 208 208s-93.1201 208 -208 208s-208 -93.1201 -208 -208s93.1201 -208 208 -208zM336 320l48 -48l-80 -80l80 -80l-48 -48
l-80 80l-80 -80l-48 48l80 80l-80 80l48 48l80 -80z" />
    <glyph glyph-name="uniF1F8" unicode="&#xf1f8;" 
d="M0 416h512v-64h-512v64zM0 320h512v-64h-512v64zM0 224h512v-64h-512v64zM0 128h512v-64h-512v64zM0 32h512v-64h-512v64z" />
    <glyph glyph-name="uniF168" unicode="&#xf168;" 
d="M508.48 121.984c2.27148 -2.81641 3.51953 -6.33594 3.51953 -9.98438v-144c0 -17.6641 -14.3359 -32 -32 -32h-448c-17.6641 0 -32 14.3359 -32 32v144c0 3.61621 1.24805 7.13574 3.51953 9.98438l128 160c3.00879 3.80762 7.61621 6.01562 12.4805 6.01562h224
c4.83203 0 9.44043 -2.20801 12.4805 -6.01562zM480 96h-0.0322266v10.4004l-119.68 149.6h-208.608l-119.68 -149.6v-10.4004h112l64 -64h96l64 64h112zM368 192h-224c-8.83203 0 -16 7.16797 -16 16s7.16797 16 16 16h224c8.83203 0 16 -7.16797 16 -16
s-7.16797 -16 -16 -16zM400 128h-288c-8.83203 0 -16 7.16797 -16 16s7.16797 16 16 16h288c8.83203 0 16 -7.16797 16 -16s-7.16797 -16 -16 -16z" />
    <glyph glyph-name="uniF1AD" unicode="&#xf1ad;" 
d="M301.177 417.883c116.435 0 210.823 -94.3896 210.823 -210.824s-94.3887 -210.823 -210.823 -210.823v45.1768c44.2422 0 85.835 17.2266 117.127 48.5195c31.293 31.292 48.5195 72.8848 48.5195 117.127c0 44.2432 -17.2266 85.8359 -48.5195 117.128
c-31.292 31.292 -72.8848 48.5195 -117.127 48.5195c-44.2432 0 -85.8359 -17.2275 -117.128 -48.5195c-24.0635 -24.0645 -39.8154 -54.2422 -45.7783 -87.0098h87.6123l-105.412 -120.471l-105.412 120.471h77.4326c14.6074 102.159 102.46 180.706 208.686 180.706z
M391.529 237.177v-60.2354h-120.471v150.588h60.2354v-90.3525h60.2354z" />
    <glyph glyph-name="uniF1A9" unicode="&#xf1a9;" 
d="M377.567 416h0.0322266c74.1758 0 134.4 -60.1924 134.4 -134.4c0 -146.111 -157.92 -191.424 -256 -339.712c-103.744 149.216 -256 188.801 -256 339.712c0 74.1768 60.2236 134.4 134.399 134.4c53.8242 0 100.128 -43.7764 121.601 -89.5039
c21.4395 45.7275 67.7441 89.5039 121.567 89.5039z" />
    <glyph glyph-name="uniF1B5" unicode="&#xf1b5;" 
d="M0 416h512v-64h-512v64zM192 320h320v-64h-320v64zM192 224h320v-64h-320v64zM192 128h320v-64h-320v64zM0 32h512v-64h-512v64zM0 96v192l128 -96z" />
    <glyph glyph-name="uniF23B" unicode="&#xf23b;" 
d="M160 64h80l-112 -112l-112 112h80v384h64v-384zM224 448h288v-64h-288v64zM224 352h224v-64h-224v64zM224 256h160v-64h-160v64zM224 160h96v-64h-96v64z" />
    <glyph glyph-name="uniF216" unicode="&#xf216;" 
d="M272 448l240 -240l-48 -48l-48 48l-128 -112v-112l-88 88l-180.32 -136h-19.6797v19.6797l136 180.32l-88 88h112l112 128l-48 48zM224 176l112 112l-32 32l-112 -112z" />
    <glyph glyph-name="uniF1CC" unicode="&#xf1cc;" 
d="M296 224c13.1836 0 24 -10.8164 24 -24v-240c0 -13.1836 -10.8164 -24 -24 -24h-272c-13.1836 0 -24 10.8164 -24 24v240c0 13.1836 10.8164 24 24 24h8v96c0 52.9277 43.0723 96 96 96h64c52.9277 0 96 -43.0723 96 -96v-96h8zM96 320v-96h128v96
c0 17.6318 -14.3682 32 -32 32h-64c-17.6318 0 -32 -14.3682 -32 -32z" />
    <glyph glyph-name="uniF22A" unicode="&#xf22a;" 
d="M128 128c0 80.1602 64 160 192 160v96l192 -128l-192 -128v96c-162.592 0 -192 -96 -192 -96zM352 64v27.6484l64 42.6553v-134.304h-416v320h221.248c-29.7598 -10.5918 -56.0645 -26.3037 -78.0479 -46.9121c-5.79199 -5.4082 -11.2002 -11.1357 -16.2559 -17.0879
h-62.9443v-192h288z" />
    <glyph glyph-name="uniF154" unicode="&#xf154;" 
d="M256 -64c-141.376 0 -256 114.624 -256 256s114.624 256 256 256s256 -114.624 256 -256s-114.624 -256 -256 -256zM256 400c-114.88 0 -208 -93.1201 -208 -208s93.1201 -208 208 -208s208 93.1201 208 208s-93.1201 208 -208 208zM128 288c0 17.6641 14.3359 32 32 32
s32 -14.3359 32 -32s-14.3359 -32 -32 -32s-32 14.3359 -32 32zM320 288c0 17.6641 14.3359 32 32 32s32 -14.3359 32 -32s-14.3359 -32 -32 -32s-32 14.3359 -32 32zM363.04 128h32.4482c4.60742 -36.2559 -16.2246 -72.2559 -51.9688 -85.2803
c-41.4395 -15.1035 -87.4551 6.36816 -102.527 47.8086c-9.05664 24.8633 -36.6406 37.7275 -61.5361 28.6719c-22.7842 -8.28809 -35.4883 -32.1602 -30.4961 -55.2002h-32.416c-4.6084 36.2559 16.2236 72.2559 51.9678 85.2803
c41.4404 15.1035 87.4561 -6.36816 102.528 -47.8086c9.05566 -24.8633 36.6396 -37.7275 61.5361 -28.6719c22.7842 8.28809 35.4883 32.1602 30.4961 55.2002h-0.0322266z" />
    <glyph glyph-name="uniF240" unicode="&#xf240;" 
d="M240 416c132.544 0 240 -107.456 240 -240s-107.456 -240 -240 -240s-240 107.456 -240 240s107.456 240 240 240zM375.808 96h56.2568c8.51172 20.4482 13.6631 41.8877 15.3271 64h-63.7119c-0.863281 -22.3037 -3.58398 -43.7764 -7.87207 -64zM104.192 256h-56.2568
c-8.51172 -20.4482 -13.6631 -41.8877 -15.3271 -64h63.7119c0.863281 22.3037 3.58398 43.7764 7.87207 64zM343.008 256h-87.0078v-64h95.6484c-0.928711 22.0801 -3.84082 43.5195 -8.64062 64zM256 288h-0.0322266h77.6318
c-5.34375 15.04 -11.7754 28.832 -19.2314 41.248c-10.752 17.9199 -23.4883 32.3516 -36.7686 41.7275c-7.07129 4.99219 -14.3037 8.57617 -21.5996 10.6885v-93.6641zM165.632 329.248h-0.0322266c-7.42383 -12.416 -13.8555 -26.208 -19.2314 -41.248h77.6318v93.6641
c-7.2959 -2.1123 -14.4961 -5.69629 -21.5996 -10.6885c-13.2803 -9.34375 -26.0166 -23.7754 -36.7686 -41.7275zM224 256h-87.0078c-4.7998 -20.4805 -7.71191 -41.9199 -8.64062 -64h95.6484v64zM47.9355 96h56.2568c-4.28809 20.2236 -6.97656 41.6963 -7.87207 64
h-63.7119c1.66406 -22.1123 6.81543 -43.5518 15.3271 -64zM128.352 160c0.928711 -22.0801 3.84082 -43.5195 8.64062 -64h87.0078v64h-95.6484zM224 64h-77.6318c5.37598 -15.04 11.8076 -28.832 19.2637 -41.248c10.752 -17.9199 23.4883 -32.3516 36.7686 -41.7275
c7.07129 -4.99219 14.3037 -8.57617 21.5996 -10.6885v93.6641zM314.4 22.752c7.45605 12.416 13.8877 26.208 19.2637 41.248h-77.6318v-93.6641c7.2959 2.1123 14.4961 5.69629 21.5996 10.6885c13.2803 9.34375 26.0166 23.7754 36.7686 41.7275zM256 96h87.0078
c4.7998 20.4805 7.71191 41.9199 8.64062 64h-95.6484v-64zM383.68 192h63.7119c-1.66406 22.1123 -6.7832 43.5518 -15.3271 64h-56.2568c4.28809 -20.2236 6.97656 -41.6963 7.87207 -64zM415.328 288c-8.06445 12.6084 -17.5039 24.3203 -28.2559 35.0723
c-16.7998 16.832 -36.0645 30.4639 -57.3447 40.6396c15.4883 -20.5762 28.3525 -46.3359 37.6641 -75.7119h47.9365zM92.9277 323.072c-10.752 -10.7207 -20.1914 -22.4639 -28.2559 -35.0723h47.9365c9.31152 29.376 22.208 55.1357 37.6641 75.7119
c-21.248 -10.1758 -40.5127 -23.8076 -57.3447 -40.6396zM64.6719 64c8.06445 -12.6084 17.5039 -24.3203 28.2559 -35.0723c16.7998 -16.832 36.0645 -30.4639 57.3447 -40.6396c-15.4883 20.5762 -28.3525 46.3359 -37.6641 75.7119h-47.9365zM387.072 28.9277
c10.752 10.7207 20.1914 22.4639 28.2559 35.0723h-47.9365c-9.31152 -29.376 -22.208 -55.1357 -37.6641 -75.7119c21.248 10.1758 40.5127 23.8076 57.3447 40.6396z" />
    <glyph glyph-name="uniF25E" unicode="&#xf25e;" 
d="M480 448h32v-256h-32v256zM0 192h32v-256h-32v256zM160 96h352v-64h-352v-80l-112 112l112 112v-80zM352 288h-352v64h352v80l112 -112l-112 -112v80z" />
    <glyph glyph-name="uniF103" unicode="&#xf103;" 
d="M384 128.032h0.0322266h128v-64l-96 -32l-32 -96h-64v128l-91.4238 91.4238l-164.608 -219.424l-64 64l109.728 274.304l-86.3359 86.3359c-24.8955 24.8965 -30.8477 59.6484 -13.248 77.248c17.6006 17.5996 52.3525 11.6484 77.248 -13.248l86.3359 -86.3682
l274.272 109.729l64 -64l-219.424 -164.576z" />
    <glyph glyph-name="uniF196" unicode="&#xf196;" 
d="M288 320h224v-352h-512v416h224zM352 96v64h-64v64h-64v-64h-64v-64h64v-64h64v64h64z" />
    <glyph glyph-name="uniF2A5" unicode="&#xf2a5;" 
d="M384 192l-230.4 -128v256z" />
    <glyph glyph-name="uniF170" unicode="&#xf170;" 
d="M512 448v-208l-80 80l-96 -96l-48 48l96 96l-80 80h208zM512 -64h-208l80 80l-96 96l48 48l96 -96l80 80v-208zM0 -64v208l80 -80l96 96l48 -48l-96 -96l80 -80h-208zM0 448h208l-80 -80l96 -96l-48 -48l-96 96l-80 -80v208z" />
    <glyph glyph-name="uniF293" unicode="&#xf293;" 
d="M281.6 192l-80.4121 87.5518c-6.8623 6.91211 -6.8623 18.0977 0 25.0381c6.8623 6.91211 17.9482 6.91211 24.8037 0l98.0479 -100.046c6.8623 -6.94043 6.8623 -18.1475 0 -25.0596l-98.0479 -100.046c-6.83398 -6.96191 -17.9482 -6.91211 -24.8037 0
c-6.8623 6.88379 -6.8623 18.0977 0 25.0381z" />
    <glyph glyph-name="uniF118" unicode="&#xf118;" 
d="M332.928 284.48l0.0322266 0.03125l-162.4 -162.399c-8.95996 -8.92871 -8.95996 -23.4883 0 -32.4482s23.5205 -8.95996 32.4805 0l194.88 194.848c26.8477 26.8486 26.8799 70.5283 0 97.4082s-70.5918 26.8799 -97.4395 0l-204.641 -204.576l0.0322266 -0.0322266
c-0.160156 -0.12793 -0.288086 -0.255859 -0.448242 -0.415039c-44.5439 -44.5449 -44.5439 -116.961 0 -161.505s116.992 -44.5439 161.536 0c0.12793 0.12793 0.255859 0.288086 0.416016 0.416016l139.68 139.616l32.4805 -32.4482l-139.68 -139.647
l-0.0322266 0.0322266c-0.160156 -0.160156 -0.288086 -0.320312 -0.416016 -0.448242c-62.5605 -62.5283 -163.937 -62.5283 -226.496 0c-62.5605 62.5283 -62.5605 163.904 0 226.464c0.12793 0.12793 0.288086 0.255859 0.448242 0.416016l204.607 204.576
c44.832 44.8643 117.536 44.832 162.4 0s44.8643 -117.536 0 -162.368l-194.88 -194.848c-26.9121 -26.9121 -70.5283 -26.8799 -97.4404 0s-26.9121 70.4961 0 97.4072l162.4 162.368z" />
    <glyph glyph-name="uniF21A" unicode="&#xf21a;" 
d="M112.512 224c61.8564 0 112 -50.1436 112 -112s-50.1436 -112 -112 -112c-61.8555 0 -112 50.1436 -112 112l-0.511719 16c0 123.712 100.288 224 224 224v-64c-42.752 0 -82.9121 -16.6396 -113.152 -46.8477c-5.82324 -5.82422 -11.1357 -12 -15.9033 -18.4961
c5.72754 0.895508 11.584 1.37598 17.5361 1.37598zM400.512 224c61.8564 0 112 -50.1436 112 -112s-50.1436 -112 -112 -112c-61.8555 0 -112 50.1436 -112 112l-0.511719 16c0 123.712 100.288 224 224 224v-64c-42.752 0 -82.9121 -16.6396 -113.152 -46.8477
c-5.82324 -5.82422 -11.1357 -12 -15.9033 -18.4961c5.72754 0.895508 11.584 1.37598 17.5674 1.37598v-0.0322266z" />
    <glyph glyph-name="uniF120" unicode="&#xf120;" 
d="M96 -64l-32 352h384l-32 -352h-320zM320 384h160v-96l-32 32h-384l-32 -32v96h160v64h128v-64zM288 384v32h-64v-32h64z" />
    <glyph glyph-name="uniF215" unicode="&#xf215;" 
d="M432 448c26.4004 0 48 -21.5996 48 -48v-416c0 -26.4004 -21.5996 -48 -48 -48h-384c-26.4004 0 -48 21.5996 -48 48v416c0 26.4004 21.5996 48 48 48h384zM416 0v384h-352v-384h352zM128 160h224v-32h-224v32zM128 96h224v-32h-224v32zM160 304
c0 26.4961 21.5039 48 48 48s48 -21.5039 48 -48s-21.5039 -48 -48 -48s-48 21.5039 -48 48zM240 256c26.4004 0 48 -14.4004 48 -32v-32h-160v32c0 17.5996 21.5996 32 48 32h64z" />
    <glyph glyph-name="uniF1D9" unicode="&#xf1d9;" 
d="M0 352l160 64v-384l-160 -64v384zM192 432l160 -96v-368l-160 80v384zM384 336l128 96v-384l-128 -96v384z" />
    <glyph glyph-name="uniF12B" unicode="&#xf12b;" 
d="M480 320c17.5996 0 32 -14.4004 32 -32v-288c0 -17.5996 -14.4004 -32 -32 -32h-448c-17.5996 0 -32 14.4004 -32 32v288c0 17.5996 14.4004 32 32 32h128v32c0 17.5996 14.4004 32 32 32h128c17.5996 0 32 -14.4004 32 -32v-32h128zM192 351.936v-31.9355h128v31.9355
l-0.0644531 0.0644531h-127.871zM480 192v32h-448v-32h64v-48c0 -8.7998 7.2002 -16 16 -16h32c8.7998 0 16 7.2002 16 16v48h192v-48c0 -8.7998 7.2002 -16 16 -16h32c8.7998 0 16 7.2002 16 16v48h64z" />
    <glyph glyph-name="uniF1FD" unicode="&#xf1fd;" 
d="M64 384h160v-384h-160v384zM288 384h160v-384h-160v384z" />
    <glyph glyph-name="uniF1BD" unicode="&#xf1bd;" 
d="M478.144 45.7598c36.2246 -60.3838 8.25684 -109.76 -62.1436 -109.76h-320c-70.4004 0 -98.3682 49.4082 -62.1436 109.76l158.144 263.521v106.72h-16c-8.7998 0 -16 7.2002 -16 16s7.2002 16 16 16h160c8.7998 0 16 -7.2002 16 -16s-7.2002 -16 -16 -16h-16v-106.72z
M120.512 128h270.977l-103.488 172.48v115.52h-64v-115.52z" />
    <glyph glyph-name="uniF10F" unicode="&#xf10f;" 
d="M201.376 9.37598l-160 160c-12.5117 12.4805 -12.5117 32.7676 0 45.248l160 160c12.5117 12.5117 32.7676 12.5117 45.248 0c12.4795 -12.5117 12.5117 -32.7676 0 -45.248l-105.376 -105.376h306.752c17.6641 0 32 -14.3359 32 -32s-14.3359 -32 -32 -32h-306.752
l105.376 -105.376c6.24023 -6.24023 9.37598 -14.4316 9.37598 -22.624s-3.13574 -16.3838 -9.37598 -22.624c-12.5117 -12.5117 -32.7676 -12.5117 -45.248 0z" />
    <glyph glyph-name="uniF1D7" unicode="&#xf1d7;" 
d="M288 400c0 -26.4961 -21.5039 -48 -48 -48s-48 21.5039 -48 48s21.5039 48 48 48s48 -21.5039 48 -48zM288 320c17.6641 0 32 -14.3359 32 -32v-160h-32v-192h-40v192h-16v-192h-40v192h-32v160c0 17.6641 14.3359 32 32 32h96z" />
    <glyph glyph-name="uniF1DC" unicode="&#xf1dc;" 
d="M0 378.182h325.818v-69.8184h-325.818v69.8184zM0 285.091h325.818v-69.8184h-325.818v69.8184zM0 192h325.818v-69.8184h-325.818v69.8184zM360.728 238.546h139.636l-69.8174 -69.8184zM500.363 261.818h-139.636l69.8184 69.8184z" />
    <glyph glyph-name="uniF1DD" unicode="&#xf1dd;" 
d="M0 378.182h325.818v-69.8184h-325.818v69.8184zM0 285.091h325.818v-69.8184h-325.818v69.8184zM0 192h325.818v-69.8184h-325.818v69.8184zM360.728 285.091h139.636l-69.8174 -69.8184z" />
    <glyph glyph-name="uniF25D" unicode="&#xf25d;" 
d="M320 374.72c92.5117 -27.5518 160 -113.248 160 -214.72c0 -123.712 -100.288 -224 -224 -224s-224 100.288 -224 224c0 101.472 67.4883 187.168 160 214.72v-67.9678c-18.1123 -7.9043 -34.752 -19.2002 -49.1523 -33.5996
c-30.208 -30.2402 -46.8477 -70.4004 -46.8477 -113.152s16.6396 -82.9443 46.8477 -113.152c30.2402 -30.208 70.4004 -46.8477 113.152 -46.8477s82.9443 16.6396 113.152 46.8477c30.208 30.2402 46.8477 70.4004 46.8477 113.152s-16.6396 82.9443 -46.8477 113.152
c-14.4004 14.3994 -31.04 25.6953 -49.1523 33.5996v67.9678zM224 448h64v-256h-64v256z" />
    <glyph glyph-name="uniF279" unicode="&#xf279;" 
d="M192 80c0 -16.6396 2.33594 -32.7363 6.65625 -48h-198.656c0 64.4805 83.4561 117.824 192 126.688v26.3994c-35.2637 19.8721 -64 69.376 -64 118.912c0 79.5195 0 144 96 144s96 -64.4805 96 -144c0 -20.3203 -4.86426 -40.6396 -12.9922 -58.9121
c-67.0723 -24.832 -115.008 -89.4717 -115.008 -165.088zM368 224c79.5195 0 144 -64.4805 144 -144s-64.4805 -144 -144 -144s-144 64.4805 -144 144s64.4805 144 144 144zM448 64v32h-64v64h-32v-64h-64v-32h64v-64h32v64h64z" />
    <glyph glyph-name="uniF26C" unicode="&#xf26c;" 
d="M512 160v-96h-40.5762c5.44043 -9.4082 8.57617 -20.3516 8.57617 -32c0 -35.3604 -28.6396 -64 -64 -64s-64 28.6396 -64 64c0 11.6484 3.13574 22.5918 8.57617 32h-177.152c5.44043 -9.4082 8.57617 -20.3516 8.57617 -32c0 -35.3604 -28.6396 -64 -64 -64
s-64 28.6396 -64 64c0 11.6484 3.13574 22.5918 8.57617 32h-40.5762l-32 32v256c0 17.5996 14.4004 32 32 32h288c17.5996 0 32 -14.4004 32 -32v-64h96zM352 160h114.336l-48 96h-66.3359v-96z" />
    <glyph glyph-name="uniF28A" unicode="&#xf28a;" 
d="M501.472 39.0723c13.3447 -11.4561 14.1123 -31.0078 1.66406 -43.4561l-50.752 -50.752c-12.4482 -12.4482 -32 -11.7119 -43.4561 1.66406l-197.376 230.271c-20.1279 -10.7197 -43.1357 -16.7998 -67.5518 -16.7998c-79.5195 0 -144 64.4805 -144 144
c0 14.5596 2.17578 28.5762 6.17578 41.8242l83.2002 -83.2002c12.4482 -12.4482 32.7998 -12.4482 45.248 0l50.752 50.752c12.4482 12.4482 12.4482 32.7998 0 45.248l-83.2002 83.2002c13.248 4 27.2646 6.17578 41.8242 6.17578c79.5195 0 144 -64.4805 144 -144
c0 -24.416 -6.08008 -47.3916 -16.7998 -67.5518z" />
    <glyph glyph-name="uniF1DE" unicode="&#xf1de;" 
d="M0 378.182h325.818v-69.8184h-325.818v69.8184zM0 285.091h325.818v-69.8184h-325.818v69.8184zM0 192h325.818v-69.8184h-325.818v69.8184zM360.728 215.272l69.8184 69.8184l69.8174 -69.8184h-139.636z" />
    <glyph glyph-name="uniF172" unicode="&#xf172;" 
d="M192 192h-160v64h160v64l96 -96l-96 -96v64zM512 448v-416l-192 -96v96h-192v128h32v-96h160v288l128 64h-288v-128h-32v160h384z" />
    <glyph glyph-name="uniF25B" unicode="&#xf25b;" 
d="M384 344.992v-24.9922h64v-32h-96v72.9922l64 30.0156v24.9922h-64v32h96v-72.9922zM338.016 320l-128 -128l128 -128h-68l-94.0156 94.0156l-94.0156 -94.0156h-68l128 128l-128 128h68l94.0156 -94.0156l94.0156 94.0156h68z" />
    <glyph glyph-name="uniF22C" unicode="&#xf22c;" 
d="M480 448c0 0 2.24023 -25.8564 0 -64l-224 -70.0479l-224 70.0479c-2.24023 38.1436 0 64 0 64l224 -64zM36.0957 350.432l219.904 -82.6875l219.904 82.6875c-12 -125.344 -56.7363 -336.096 -219.904 -414.432c-163.168 78.3037 -207.904 289.088 -219.904 414.432z
" />
    <glyph glyph-name="uniF1F0" unicode="&#xf1f0;" 
d="M0 -64v512h256v-512h-256zM160 384v-64h64v64h-64zM160 256v-64h64v64h-64zM160 128v-64h64v64h-64zM32 384v-64h64v64h-64zM32 256v-64h64v64h-64zM32 128v-64h64v64h-64zM288 288h224v-32h-224v32zM288 -64v288h224v-288h-64v128h-96v-128h-64z" />
    <glyph glyph-name="uniF11C" unicode="&#xf11c;" 
d="M192 240c0 -8.83203 -7.16797 -16 -16 -16s-16 7.16797 -16 16s7.16797 16 16 16s16 -7.16797 16 -16zM352 240c0 -8.83203 -7.16797 -16 -16 -16s-16 7.16797 -16 16s7.16797 16 16 16s16 -7.16797 16 -16zM256 448c141.376 0 256 -114.624 256 -256
s-114.624 -256 -256 -256s-256 114.624 -256 256s114.624 256 256 256zM128 240c0 -26.4961 21.5039 -48 48 -48s48 21.5039 48 48s-21.5039 48 -48 48s-48 -21.5039 -48 -48zM320 64v32h-128v-32h128zM336 192c26.4961 0 48 21.5039 48 48s-21.5039 48 -48 48
s-48 -21.5039 -48 -48s21.5039 -48 48 -48z" />
    <glyph glyph-name="uniF1DF" unicode="&#xf1df;" 
d="M256 416c141.376 0 256 -114.624 256 -256c0 -96.3838 -53.2803 -180.32 -132 -224h-248c-78.7197 43.6797 -132 127.616 -132 224c0 141.376 114.624 256 256 256zM400.96 15.04c38.7197 38.7197 60.0322 90.208 60.0322 144.96h-44.9922v32h42.5283
c-3.52051 22.4961 -10.6885 44.0645 -21.2803 64h-53.248v32h32.1279c-4.7041 5.8877 -9.79199 11.5518 -15.2002 16.96c-23.1035 23.1045 -50.7842 40.0322 -80.96 49.8877v-34.8477h-32v42.5283c-10.4961 1.63184 -21.1836 2.49609 -32 2.49609
c-10.8154 0 -21.5039 -0.832031 -32 -2.49609v-42.5283h-32v34.8477c-30.1758 -9.8877 -57.8555 -26.7832 -80.96 -49.8877c-5.4082 -5.4082 -10.4639 -11.0723 -15.2002 -16.96h32.1279v-32h-53.2471c-10.5928 -19.9355 -17.7607 -41.5039 -21.2803 -64h42.5273v-32
h-44.9912c0 -54.752 21.3115 -106.24 60.0312 -144.96c5.34473 -5.34375 10.9766 -10.3682 16.7686 -15.04h96.1914l18.2725 256h27.4238l18.2725 -256h96.1914c5.82422 4.67188 11.4238 9.69629 16.7686 15.04h0.0957031z" />
    <glyph glyph-name="uniF203" unicode="&#xf203;" 
d="M224 160l200.384 100.192c15.1045 -30.1445 23.6162 -64.1602 23.6162 -100.192c0 -123.712 -100.288 -224 -224 -224s-224 100.288 -224 224s100.288 224 224 224v-224zM456.384 324.192l-200.384 -100.192v224c87.7119 0 163.616 -50.4004 200.384 -123.808z" />
    <glyph glyph-name="uniF116" unicode="&#xf116;" 
d="M118.624 9.37598v0.0322266c-12.4805 -12.5117 -32.7676 -12.5117 -45.248 0c-6.24023 6.24023 -9.37598 14.4316 -9.37598 22.624c0 8.19141 3.13574 16.3838 9.37598 22.624l265.376 265.376h-114.752c-17.6641 0 -32 14.3359 -32 32s14.3359 32 32 32h192v-0.0322266
c4.12793 0 8.28809 -0.799805 12.2559 -2.43164c11.9365 -4.95996 19.7441 -16.6406 19.7441 -29.5684v-192c0 -17.6641 -14.3359 -32 -32 -32s-32 14.3359 -32 32v114.752z" />
    <glyph glyph-name="uniF267" unicode="&#xf267;" 
d="M288 288l64 -64l-128 -128l-64 64zM500.768 299.232c14.9766 -14.9766 14.9766 -39.5205 0 -54.4961l-297.504 -297.504c-15.0078 -14.9766 -39.5195 -14.9766 -54.4961 0l-36.7676 36.7676l16 16c8.22363 8.19238 13.2803 19.4883 13.2803 32
c0 24.9922 -20.2559 45.248 -45.248 45.248c-12.5127 0 -23.8398 -5.08789 -32.0322 -13.2803l-15.9678 -15.9678l-36.7686 36.7676c-14.9756 14.9766 -14.9756 39.5205 0 54.4961l297.504 297.504c14.9766 14.9766 39.5205 14.9766 54.4961 0l36.7686 -36.7676l-16 -16
c-8.22461 -8.19238 -13.2803 -19.4883 -13.2803 -32c0 -24.9922 20.2559 -45.248 45.248 -45.248c12.4805 0 23.8076 5.05566 32 13.248l16 16zM224 32l192 192l-128 128l-192 -192z" />
    <glyph glyph-name="uniF1BC" unicode="&#xf1bc;" 
d="M483.556 391.111c15.6445 0 28.4443 -12.7998 28.4443 -28.4443v-284.444c0 -15.6445 -12.7998 -28.4453 -28.4443 -28.4453h-455.111c-15.6445 0 -28.4443 12.8008 -28.4443 28.4453v284.444c0 15.6445 12.7998 28.4443 28.4443 28.4443h455.111zM284.444 334.223
v-56.8896h56.8887v56.8896h-56.8887zM369.777 248.889h-56.8887v-56.8887h56.8887v56.8887zM199.111 334.223v-56.8896h56.8887v56.8896h-56.8887zM284.444 248.889h-56.8887v-56.8887h56.8887v56.8887zM113.777 334.223v-56.8896h56.8896v56.8896h-56.8896z
M199.111 248.889h-56.8887v-56.8887h56.8887v56.8887zM56.8887 334.223v-56.8896h28.4443v56.8896h-28.4443zM56.8887 248.889v-56.8887h56.8887v56.8887h-56.8887zM85.333 106.667v56.8887h-28.4443v-56.8887h28.4443zM341.333 106.667v56.8887h-227.556v-56.8887h227.556z
M455.111 106.667v56.8887h-85.334v-56.8887h85.334zM455.111 192v56.8887h-56.8887v-56.8887h56.8887zM455.111 277.333v56.8896h-85.334v-56.8896h85.334z" />
    <glyph glyph-name="uniF148" unicode="&#xf148;" horiz-adv-x="511" 
d="M413.536 267.968h-0.0322266c38.1445 -9.2793 66.4961 -43.6797 66.4961 -84.7354c0 -48.1289 -38.9434 -87.1367 -87.0078 -87.2324h-55.7441l-113.248 -117.248l-113.248 117.248h-45.8877c-53.5039 0 -96.8643 43.3916 -96.8643 96.9277
s43.3604 96.9287 96.8643 96.9287c5.8877 0 11.6797 -0.544922 17.2803 -1.56836c-0.448242 3.10352 -0.671875 6.24023 -0.671875 9.47168c0 36.8965 29.9199 66.8486 66.8154 66.8486c21.5039 0 40.6406 -10.1768 52.8643 -25.9844
c21.792 27.6162 55.5518 45.376 93.4395 45.376c64.7041 0 117.312 -51.6797 118.944 -116.032zM224.032 32l96 96h-64v96h-64v-96h-64z" />
    <glyph glyph-name="uniF122" unicode="&#xf122;" 
d="M437.024 373.024c48.3516 -48.3525 74.9756 -112.641 74.9756 -181.024s-26.624 -132.672 -74.9756 -181.024c-48.3525 -48.3516 -112.641 -74.9756 -181.024 -74.9756s-132.672 26.624 -181.024 74.9756c-48.3516 48.3525 -74.9756 112.641 -74.9756 181.024
s26.624 132.672 74.9756 181.024c48.3525 48.3516 112.641 74.9756 181.024 74.9756s132.672 -26.624 181.024 -74.9756zM448 192c0 105.856 -86.1436 192 -192 192c-41.4082 0 -79.8076 -13.1836 -111.2 -35.5518l267.648 -267.648
c22.3682 31.3926 35.5518 69.792 35.5518 111.2zM64 192c0 -105.856 86.1436 -192 192 -192c41.4082 0 79.8076 13.1836 111.2 35.5518l-267.648 267.648c-22.3682 -31.3926 -35.5518 -69.792 -35.5518 -111.2z" />
    <glyph glyph-name="uniF175" unicode="&#xf175;" 
d="M448 224v-288h-64v288h-8c-13.1836 0 -24 10.8164 -24 24v80c0 13.2158 10.8164 24 24 24h8v96h64v-96h8c13.1836 0 24 -10.7842 24 -24v-80c0 -13.1836 -10.8164 -24 -24 -24h-8zM384 320v-64h64v64h-64zM296 32h-8v-96h-64v96h-8c-13.1836 0 -24 10.8164 -24 24v80
c0 13.1836 10.8164 24 24 24h8v288h64v-288h8c13.1836 0 24 -10.8164 24 -24v-80c0 -13.1836 -10.8164 -24 -24 -24zM224 128v-64h64v64h-64zM136 224h-8v-288h-64v288h-8c-13.2158 0 -24 10.8164 -24 24v80c0 13.2158 10.7842 24 24 24h8v96h64v-96h8
c13.1836 0 24 -10.7842 24 -24v-80c0 -13.1836 -10.8164 -24 -24 -24zM64 320v-64h64v64h-64z" />
    <glyph glyph-name="uniF1EB" unicode="&#xf1eb;" 
d="M96 416h384v-384h-384v384zM448 64v320h-320v-320h320zM64 0h336l32 -32h-400v400l32 -32v-336zM176 320h208v-208l-80 80l-96 -96l-48 48l96 96z" />
    <glyph glyph-name="uniF264" unicode="&#xf264;" 
d="M161.024 32h-56.832l96 320h111.615l96 -320h-56.7998l-28.7998 96h-132.384zM237.824 288l-28.7998 -96h93.9834l-28.7998 96h-36.3838z" />
    <glyph glyph-name="uniF283" unicode="&#xf283;" 
d="M480 138.432v-42.4316h-42.4316l-53.5684 53.5684l-53.5684 -53.5684h-42.4316v42.4316l53.5684 53.5684l-53.5684 53.5684v42.4316h42.4316l53.5684 -53.5684l53.5684 53.5684h42.4316v-42.4316l-53.5684 -53.5684zM208 -32
c-4.16016 0 -8.25586 1.63184 -11.3281 4.67188l-123.328 123.328h-57.376c-8.83203 0 -16 7.16797 -16 16v160c0 8.83203 7.16797 16 16 16h57.376l123.328 123.328c4.57617 4.57617 11.4561 5.95215 17.4404 3.45605c5.9834 -2.49609 9.8877 -8.32031 9.8877 -14.7842
v-416c0 -6.46387 -3.9043 -12.3203 -9.8877 -14.7842c-1.98438 -0.832031 -4.06445 -1.21582 -6.1123 -1.21582z" />
    <glyph glyph-name="uniF274" unicode="&#xf274;" 
d="M0 0h512v-32h-512v32zM512 64v-32h-512v32l64 128h128v-64h128v64h128zM112 288l144 144l144 -144h-112v-128h-64v128h-112z" />
    <glyph glyph-name="uniF275" unicode="&#xf275;" 
d="M240 96h240v-128h-480v128h240zM448 32v32h-64v-32h64zM112 288l128 128l128 -128h-80v-160h-96v160h-80z" />
    <glyph glyph-name="uniF29E" unicode="&#xf29e;" 
d="M199.68 192c0 31.1035 25.2451 56.292 56.3486 56.292c31.1045 0 56.292 -25.1885 56.292 -56.292c0 -31.0752 -25.1875 -56.3203 -56.292 -56.3203c-31.1035 0 -56.3486 25.2168 -56.3486 56.3203z" />
    <glyph glyph-name="uniF1D2" unicode="&#xf1d2;" 
d="M426.656 448c46.9756 0 85.3438 -38.4004 85.3438 -85.3438v-341.312c0 -46.9434 -38.3682 -85.3438 -85.3438 -85.3438h-341.312c-46.9434 0 -85.3438 38.4004 -85.3438 85.3438v341.312c0 46.9434 38.4004 85.3438 85.3438 85.3438h341.312zM128 320
c-4.57617 0 -9.02441 -0.959961 -13.0879 -2.81641l141.088 -164.575l141.088 164.575c-4.0957 1.82422 -8.51172 2.81641 -13.0879 2.81641h-256zM96 96c0 -2.81641 0.351562 -5.59961 1.08789 -8.25586l92.7998 92.7998l-93.8232 109.472
c-0.0322266 -0.671875 -0.0644531 -1.34375 -0.0644531 -2.01562v-192zM384 64h0.0644531c2.81543 0 5.59961 0.351562 8.25586 1.08789l-91.0723 91.0723l-45.2158 -52.7363l-45.2158 52.7363l-91.0723 -91.0723c2.65625 -0.704102 5.43945 -1.08789 8.25586 -1.08789h256z
M416 96v192c0 0.671875 -0.0322266 1.34375 -0.0644531 2.01562l-93.8232 -109.472l92.7998 -92.7998c0.704102 2.65625 1.08789 5.43945 1.08789 8.25586z" />
    <glyph glyph-name="uniF14E" unicode="&#xf14e;" 
d="M240 416c132.544 0 240 -107.456 240 -240s-107.456 -240 -240 -240s-240 107.456 -240 240s107.456 240 240 240zM240 -16c106.048 0 192 85.9521 192 192s-85.9521 192 -192 192s-192 -85.9521 -192 -192s85.9521 -192 192 -192zM335.424 125.824v0.0634766
c7.64844 -4.44727 10.2402 -14.2393 5.79199 -21.8877c-14.3359 -24.6719 -40.832 -39.9678 -69.1836 -39.9678h-64c-38.6562 0 -70.9766 27.5195 -78.4004 64h-17.5996c-8.83203 0 -16 7.16797 -16 16s7.16797 16 16 16h16v32h-16c-8.83203 0 -16 7.16797 -16 16
s7.16797 16 16 16h17.5996c7.45605 36.4795 39.7764 64 78.4004 64h64c28.3193 0 54.8477 -15.3281 69.1836 -39.9678c4.44824 -7.64844 1.85645 -17.4404 -5.79199 -21.8887c-7.64746 -4.44824 -17.4395 -1.85547 -21.8877 5.79199
c-8.63965 14.8164 -24.5439 24.0322 -41.5361 24.0322h-64c-20.8643 0 -38.6562 -13.376 -45.248 -32h77.248c8.83203 0 16 -7.16797 16 -16s-7.16797 -16 -16 -16h-80v-32h80c8.83203 0 16 -7.16797 16 -16s-7.16797 -16 -16 -16h-77.248
c6.5918 -18.624 24.3838 -32 45.248 -32h64c16.9922 0 32.8965 9.21582 41.5361 24.0322c4.44824 7.64746 14.2402 10.2402 21.8877 5.79199z" />
    <glyph glyph-name="uniF29C" unicode="&#xf29c;" 
d="M281.6 192l-58.9297 64.1562c-5.02051 5.07031 -5.02051 13.2842 0 18.3828c5.02051 5.04102 13.1846 5.04102 18.1768 0l71.8574 -73.3164c5.02051 -5.09082 5.02051 -13.3115 0 -18.3535l-71.8574 -73.3154c-4.99219 -5.0918 -13.1562 -5.07031 -18.1768 0
c-5.02051 5.04199 -5.02051 13.2627 0 18.3535l58.9297 64.0996v-0.00683594zM256 437.76c135.729 0 245.76 -110.03 245.76 -245.76c0 -135.758 -110.03 -245.76 -245.76 -245.76s-245.76 110.002 -245.76 245.76c0 135.729 110.03 245.76 245.76 245.76zM256 -21.8594
c118.094 0 213.859 95.7441 213.859 213.859s-95.7725 213.859 -213.859 213.859c-118.144 0 -213.859 -95.7441 -213.859 -213.859c-0.0283203 -118.115 95.7158 -213.859 213.859 -213.859z" />
    <glyph glyph-name="uniF20C" unicode="&#xf20c;" 
d="M208 -32c-2.49609 0 -4.95996 0.576172 -7.16797 1.69629l-72.832 36.416v-22.1123c0 -8.83203 -7.16797 -16 -16 -16h-96c-8.83203 0 -16 7.16797 -16 16v320c0 8.83203 7.16797 16 16 16h96c8.83203 0 16 -7.16797 16 -16v-22.7197l109.024 119.584
c0.12793 0.12793 0.223633 0.255859 0.351562 0.383789c9.15234 9.50391 21.4404 14.752 34.624 14.752c26.4639 0 48 -21.5361 48 -48c0 -8.44824 -2.24023 -16.7363 -6.43164 -24l-46.9121 -88h197.344c26.4639 0 48 -21.5361 48 -48s-21.5361 -48 -48 -48h-114.752
c1.79199 -4.99219 2.75195 -10.4004 2.75195 -16c0 -12.2881 -4.63965 -23.4883 -12.2559 -32c7.61621 -8.51172 12.2559 -19.7119 12.2559 -32c0 -16.96 -8.83203 -31.9043 -22.1758 -40.4482c3.93555 -6.97559 6.17578 -15.0078 6.17578 -23.5518
c0 -26.4639 -21.5361 -48 -48 -48h-80zM80 0c8.83203 0 16 7.16797 16 16s-7.16797 16 -16 16s-16 -7.16797 -16 -16s7.16797 -16 16 -16zM211.776 0l0.03125 0.0322266h76.2246c8.83203 0 16 7.16797 16 16s-7.16797 16 -16 16s-16 7.16797 -16 16s7.16797 16 16 16h16
c8.83203 0 16 7.16797 16 16s-7.16797 16 -16 16s-16 7.16797 -16 16s7.16797 16 16 16s16 7.16797 16 16s-7.16797 16 -16 16s-16 7.16797 -16 16s7.16797 16 16 16h160c8.83203 0 16 7.16797 16 16s-7.16797 16 -16 16h-224c-5.63184 0 -10.8164 2.97559 -13.7285 7.77539
c-2.91211 4.80078 -3.07129 10.7842 -0.416016 15.7441l59.7119 112c0.12793 0.255859 0.288086 0.543945 0.448242 0.799805c1.3125 2.33691 1.95215 4.92871 1.95215 7.64844c0 8.83203 -7.16797 16 -16 16c-4.35156 0 -8.38379 -1.69629 -11.4238 -4.7998
l-132.576 -145.408v-191.904z" />
    <glyph glyph-name="uniF282" unicode="&#xf282;" 
d="M208 -32c-4.16016 0 -8.25586 1.63184 -11.3281 4.67188l-123.328 123.328h-57.376c-8.83203 0 -16 7.16797 -16 16v160c0 8.83203 7.16797 16 16 16h57.376l123.328 123.328c4.57617 4.57617 11.4561 5.95215 17.4404 3.45605
c5.9834 -2.49609 9.8877 -8.32031 9.8877 -14.7842v-416c0 -6.46387 -3.9043 -12.3203 -9.8877 -14.7842c-1.98438 -0.832031 -4.06445 -1.21582 -6.1123 -1.21582z" />
    <glyph glyph-name="uniF102" unicode="&#xf102;" 
d="M448 320c35.2002 0 64 -28.7998 64 -64v-256c0 -35.2002 -28.7998 -64 -64 -64h-384c-35.2002 0 -64 28.7998 -64 64v256c0 35.2002 28.7998 64 64 64h96v64c0 17.5996 14.4004 32 32 32h128c17.5996 0 32 -14.4004 32 -32v-64h96zM192 384v-64h128v64h-128zM384 96v64
h-96v96h-64v-96h-96v-64h96v-96h64v96h96z" />
    <glyph glyph-name="uniF187" unicode="&#xf187;" 
d="M458.912 333.472c18.9121 -25.792 21.0879 -38.3037 21.0879 -45.4717v-312c0 -22.0479 -17.9521 -40 -40 -40h-368c-22.0479 0 -40 17.9521 -40 40v432c0 22.0479 17.9521 40 40 40h248c7.16797 0 19.6797 -2.17578 45.4717 -21.0879
c15.1367 -11.1045 32.8643 -26.5918 49.8564 -43.584s32.4795 -34.7197 43.584 -49.8564zM392.672 360.672h-0.0322266c-15.3281 15.3604 -29.1836 27.3926 -40.6719 36.2881v-76.96h76.9922c-8.89551 11.4883 -20.9277 25.3115 -36.2881 40.6719zM448 -24v312h-112
c-8.83203 0 -16 7.16797 -16 16v112h-248c-4.32031 0 -8 -3.67969 -8 -8v-432c0 -4.35156 3.67969 -8 8 -8h368c4.35156 0 8 3.64844 8 8zM368 32h-224c-8.83203 0 -16 7.16797 -16 16s7.16797 16 16 16h224c8.83203 0 16 -7.16797 16 -16s-7.16797 -16 -16 -16zM368 96
h-224c-8.83203 0 -16 7.16797 -16 16s7.16797 16 16 16h224c8.83203 0 16 -7.16797 16 -16s-7.16797 -16 -16 -16zM368 160h-224c-8.83203 0 -16 7.16797 -16 16s7.16797 16 16 16h224c8.83203 0 16 -7.16797 16 -16s-7.16797 -16 -16 -16z" />
    <glyph glyph-name="uniF132" unicode="&#xf132;" 
d="M213.333 391.111c-22.5273 0 -44.2588 -3.52734 -64.625 -10.4961c-19.0869 -6.54199 -36.04 -15.7588 -50.4326 -27.3926c-26.6807 -21.5889 -41.3867 -49.2373 -41.3867 -77.8516c0 -15.9863 4.46582 -31.5449 13.2842 -46.166
c9.1875 -15.2744 23.0684 -29.2402 40.1064 -40.4189c13.5391 -8.875 22.6416 -23.0977 25.0596 -39.083c0.398438 -2.67383 0.710938 -5.34766 0.966797 -8.02148c1.22363 1.10938 2.41797 2.27539 3.6123 3.4707c10.7236 10.6943 25.2021 16.583 40.1357 16.583
c2.38867 0 4.75 -0.142578 7.13965 -0.455078c8.61816 -1.08105 17.3789 -1.65039 26.1113 -1.65039c22.5283 0 44.2598 3.52734 64.626 10.4961c19.0859 6.54199 36.0391 15.7588 50.46 27.3926c26.6816 21.5889 41.3867 49.2373 41.3867 77.8525
c0 28.6143 -14.7051 56.2627 -41.3867 77.8516c-14.3926 11.6631 -31.374 20.8789 -50.46 27.3926c-20.3662 6.96875 -42.0977 10.4961 -64.626 10.4961h0.0283203zM213.333 448v0c117.817 0 213.334 -77.2832 213.334 -172.629
c0 -95.3467 -95.5166 -172.63 -213.334 -172.63c-11.3203 0 -22.4141 0.710938 -33.251 2.10547c-45.8242 -45.6533 -98.7305 -53.8174 -151.638 -55.04v11.1787c28.5586 13.9375 51.5703 39.3096 51.5703 68.3232c0 4.03906 -0.313477 8.02148 -0.911133 11.918
c-48.2412 31.6592 -79.1035 79.9863 -79.1035 134.173c0 95.3457 95.5166 172.629 213.333 172.629v-0.0283203zM442.681 61.042c0 -24.8604 16.1279 -46.6211 40.9033 -58.5674v-9.58594c-45.8242 1.02441 -87.8936 8.0498 -127.63 47.1611
c-9.38672 -1.16602 -19.0293 -1.79199 -28.8145 -1.79199c-42.4395 0 -81.5215 11.4346 -112.726 30.6914c64.3135 0.227539 125.014 20.8213 171.036 58.084c23.2109 18.7734 41.501 40.8174 54.415 65.4785c13.6816 26.1689 20.5938 54.0449 20.5938 82.8594
c0 4.63574 -0.199219 9.27246 -0.569336 13.8516c32.2559 -26.624 52.1104 -62.9473 52.1104 -102.969c0 -46.4492 -26.7373 -87.8643 -68.5508 -115.001c-0.512695 -3.32715 -0.768555 -6.74121 -0.768555 -10.2109z" />
    <glyph glyph-name="uniF131" unicode="&#xf131;" 
d="M483.556 47.4736c0 -20.2236 11.5771 -37.7461 28.4443 -46.3076v-7.08203c-4.72168 -0.654297 -9.5293 -0.996094 -14.4502 -0.996094c-30.2363 0 -57.4854 12.6865 -76.7715 32.9961c-11.6621 -3.10059 -24.0068 -4.7793 -36.7783 -4.7793
c-70.6846 0 -128 50.9443 -128 113.778c0 62.833 57.3154 113.777 128 113.777s128 -50.9443 128 -113.777c0 -24.6045 -8.78906 -47.3604 -23.7227 -65.9912c-3.04395 -6.59961 -4.72168 -13.9092 -4.72168 -21.6465v0.0283203zM102.514 349.696
c-29.4395 -23.9219 -45.625 -54.6709 -45.625 -86.585c0 -17.9199 4.97754 -35.2715 14.791 -51.627c10.127 -16.8389 25.3154 -32.2559 44.0039 -44.5439c13.4824 -8.875 22.5566 -23.0967 24.9746 -39.0547c0.795898 -5.31836 1.30762 -10.6943 1.50684 -16.042
c3.32812 2.75879 6.54297 5.7168 9.72852 8.87402c10.7236 10.7236 25.2305 16.6689 40.2207 16.6689c2.38867 0 4.77832 -0.142578 7.16797 -0.455078c9.30078 -1.19434 18.8301 -1.79199 28.2734 -1.79199v-56.8887c-12.0605 0 -23.8936 0.767578 -35.4414 2.24707
c-48.8682 -48.8682 -107.236 -57.6572 -163.642 -58.9375v11.9756c30.4639 14.9336 56.8887 42.0977 56.8887 73.1592c0 4.32324 -0.34082 8.58984 -0.966797 12.7432c-51.4561 33.9053 -84.3662 85.6748 -84.3662 143.701c0 102.115 101.888 184.889 227.556 184.889
c123.762 0 224.427 -80.2705 227.471 -180.224c-18.2617 8.13477 -38.1445 13.084 -58.7949 14.4775c-5.12012 24.918 -20.167 48.3564 -43.6621 67.4424c-15.7012 12.7432 -34.1904 22.8408 -54.9551 29.9805c-22.1016 7.59473 -45.6816 11.4346 -70.0869 11.4346
s-47.9863 -3.83984 -70.0869 -11.4346c-20.7646 -7.13965 -39.2539 -17.209 -54.9551 -29.9805v-0.0283203z" />
    <glyph glyph-name="uniF130" unicode="&#xf130;" 
d="M213.333 448v0c117.817 0 213.334 -77.2832 213.334 -172.629c0 -95.3467 -95.5166 -172.63 -213.334 -172.63c-11.3203 0 -22.4141 0.710938 -33.251 2.10547c-45.8242 -45.6533 -98.7305 -53.8174 -151.638 -55.04v11.1787
c28.5586 13.9375 51.5703 39.3096 51.5703 68.3232c0 4.03906 -0.313477 8.02148 -0.911133 11.918c-48.2412 31.6592 -79.1035 79.9863 -79.1035 134.173c0 95.3457 95.5166 172.629 213.333 172.629v-0.0283203zM442.681 61.042
c0 -24.8604 16.1279 -46.6211 40.9033 -58.5674v-9.58594c-45.8242 1.02441 -87.8936 8.0498 -127.63 47.1611c-9.38672 -1.16602 -19.0293 -1.79199 -28.8145 -1.79199c-42.4395 0 -81.5215 11.4346 -112.726 30.6914c64.3135 0.227539 125.014 20.8213 171.036 58.084
c23.2109 18.7734 41.501 40.8174 54.415 65.4785c13.6816 26.1689 20.5938 54.0449 20.5938 82.8594c0 4.63574 -0.199219 9.27246 -0.569336 13.8516c32.2559 -26.624 52.1104 -62.9473 52.1104 -102.969c0 -46.4492 -26.7373 -87.8643 -68.5508 -115.001
c-0.512695 -3.32715 -0.768555 -6.74121 -0.768555 -10.2109z" />
    <glyph glyph-name="uniF21D" unicode="&#xf21d;" 
d="M256 448c141.376 0 256 -114.624 256 -256s-114.624 -256 -256 -256s-256 114.624 -256 256s114.624 256 256 256zM256 128c35.3604 0 64 28.6396 64 64s-28.6396 64 -64 64s-64 -28.6396 -64 -64s28.6396 -64 64 -64z" />
    <glyph glyph-name="uniF150" unicode="&#xf150;" 
d="M240 416c132.544 0 240 -107.456 240 -240s-107.456 -240 -240 -240s-240 107.456 -240 240s107.456 240 240 240zM240 -16c106.048 0 192 85.9521 192 192s-85.9521 192 -192 192s-192 -85.9521 -192 -192s85.9521 -192 192 -192zM304 160h-48v-32h48
c8.83203 0 16 -7.16797 16 -16s-7.16797 -16 -16 -16h-48v-48c0 -8.83203 -7.16797 -16 -16 -16s-16 7.16797 -16 16v48h-48c-8.83203 0 -16 7.16797 -16 16s7.16797 16 16 16h48v32h-48c-8.83203 0 -16 7.16797 -16 16s7.16797 16 16 16h34.1123l-47.4238 71.1357
c-4.89648 7.32812 -2.88086 17.2803 4.44727 22.1758c7.32812 4.89648 17.2803 2.91211 22.1758 -4.44727l50.6885 -76.0322l50.6885 76.0322c4.89551 7.35938 14.8154 9.34375 22.1758 4.44727c7.35938 -4.89551 9.34375 -14.8154 4.44727 -22.1758l-47.4238 -71.1357
h34.1123c8.83203 0 16 -7.16797 16 -16s-7.16797 -16 -16 -16z" />
    <glyph glyph-name="uniF199" unicode="&#xf199;" 
d="M32 192h192v-64h-64v-192h-64v192h-64v64zM480 320h-125.888v-384h-68.2559v384h-125.889v64h320z" />
    <glyph glyph-name="uniF29B" unicode="&#xf29b;" 
d="M289.33 274.531v0.0078125c5.02051 -5.12012 5.02051 -13.3125 0 -18.3828l-58.9297 -64.1562l58.9297 -64.1279c5.02051 -5.0918 5.02051 -13.3125 0 -18.3535c-5.02051 -5.07031 -13.1846 -5.0918 -18.1768 0l-71.8574 73.3154
c-5.02051 5.04199 -5.02051 13.2617 0 18.3535l71.8574 73.3438c4.99219 5.04199 13.1562 5.04199 18.1768 0zM256 437.76c135.729 0 245.76 -110.03 245.76 -245.76c0 -135.758 -110.03 -245.76 -245.76 -245.76s-245.76 110.002 -245.76 245.76
c0 135.729 110.03 245.76 245.76 245.76zM256 -21.8594c118.087 0 213.859 95.7441 213.859 213.859s-95.7656 213.859 -213.859 213.859c-118.144 0 -213.859 -95.7441 -213.859 -213.859s95.7158 -213.859 213.859 -213.859z" />
    <glyph glyph-name="uniF257" unicode="&#xf257;" 
d="M512 192v-32h-117.248c13.7598 -19.2637 21.248 -41.3438 21.248 -64c0 -35.4238 -18.3359 -69.5039 -50.3037 -93.4717c-29.6641 -22.2725 -68.6406 -34.5283 -109.696 -34.5283s-80.0322 12.2559 -109.696 34.5283c-31.9678 23.9678 -50.3037 58.0479 -50.3037 93.4717
h64c0 -34.6885 43.9678 -64 96 -64s96 29.3115 96 64s-43.9678 64 -96 64h-256v32h149.76c-1.18359 0.832031 -2.33594 1.66406 -3.45605 2.52832c-31.9678 23.9678 -50.3037 58.0479 -50.3037 93.4717s18.3359 69.5039 50.3037 93.4717
c29.6641 22.2725 68.6406 34.5283 109.696 34.5283s80.0322 -12.2559 109.696 -34.5283c31.9678 -23.9678 50.3037 -58.0479 50.3037 -93.4717h-64c0 34.6885 -43.9678 64 -96 64s-96 -29.3115 -96 -64s43.9678 -64 96 -64c39.4883 0 77.0244 -11.3281 106.24 -32h149.76z
" />
    <glyph glyph-name="uniF128" unicode="&#xf128;" 
d="M99.5557 391.111c7.82227 0 14.2217 -6.40039 14.2217 -14.2227v-312.889c0 -7.82227 -6.39941 -14.2227 -14.2217 -14.2227h-85.333c-7.82227 0 -14.2227 6.40039 -14.2227 14.2227v312.889c0 7.82227 6.40039 14.2227 14.2227 14.2227h85.333zM85.333 305.777v28.4453
h-56.8887v-28.4453h56.8887zM241.777 391.111c7.82227 0 14.2227 -6.40039 14.2227 -14.2227v-312.889c0 -7.82227 -6.40039 -14.2227 -14.2227 -14.2227h-85.333c-7.82227 0 -14.2217 6.40039 -14.2217 14.2227v312.889c0 7.82227 6.39941 14.2227 14.2217 14.2227h85.333z
M227.556 305.777v28.4453h-56.8887v-28.4453h56.8887zM340.024 369.124c6.96973 3.49805 15.5596 0.682617 19.0869 -6.31543l128 -254.009c3.49805 -6.96875 0.682617 -15.5586 -6.31445 -19.0859l-76.2031 -38.4004
c-6.96875 -3.49805 -15.5596 -0.682617 -19.0859 6.31543l-128 254.009c-3.49902 6.96875 -0.682617 15.5586 6.31445 19.0859z" />
    <glyph glyph-name="uniF10E" unicode="&#xf10e;" 
d="M16 192l240 240v-144h256v-192h-256v-144z" />
    <glyph glyph-name="uniF212" unicode="&#xf212;" 
d="M488 448c13.1836 0 24 -10.8164 24 -24v-192c0 -13.1836 -7.61621 -31.6162 -16.96 -40.96l-238.048 -238.048c-9.34375 -9.34375 -24.6084 -9.34375 -33.9521 0l-206.048 206.048c-9.34375 9.34375 -9.34375 24.6084 0 33.9521l238.048 238.048
c9.31152 9.31152 27.7764 16.96 40.96 16.96h192zM368 256c26.4961 0 48 21.5039 48 48s-21.5039 48 -48 48s-48 -21.5039 -48 -48s21.5039 -48 48 -48z" />
    <glyph glyph-name="uniF2A3" unicode="&#xf2a3;" 
d="M128 294.4h256l-128 -230.4z" />
    <glyph glyph-name="uniF11A" unicode="&#xf11a;" 
d="M288 368v-160l160 160v-352l-160 160v-160l-176 176z" />
    <glyph glyph-name="uniF114" unicode="&#xf114;" 
d="M438.624 54.624h-0.0322266c12.5117 -12.4805 12.5117 -32.7676 0 -45.248c-6.24023 -6.24023 -14.4316 -9.37598 -22.624 -9.37598c-8.19141 0 -16.3838 3.13574 -22.624 9.37598l-265.376 265.376v-114.752c0 -17.6641 -14.3359 -32 -32 -32s-32 14.3359 -32 32v192
h0.0322266c0 4.12793 0.799805 8.28809 2.43164 12.2559c4.95996 11.9365 16.6406 19.7441 29.5684 19.7441h192c17.6641 0 32 -14.3359 32 -32s-14.3359 -32 -32 -32h-114.752z" />
    <glyph glyph-name="uniF183" unicode="&#xf183;" 
d="M420.992 153.248l0.0322266 0.0634766c2.43164 -2.39941 4.67188 -5.85547 5.02344 -8.67188c1.21582 -9.47168 0.288086 -18.7197 -4.16016 -25.4395c-2.27148 -3.42383 -5.9834 -5.91992 -10.3994 -7.10449c-2.84863 -0.767578 -6.36816 -1.15137 -10.4639 -1.15137
c-22.9766 0 -59.4248 11.584 -89.0566 28.2559c-38.8799 -5.82422 -83.2314 -16.3838 -122.208 -29.0566c-33.7598 -58.9111 -58.2715 -85.1836 -79.3594 -85.1836c-3.93652 0 -7.77637 0.927734 -11.4248 2.75195l-8.41602 4.22363
c-5.24805 3.00879 -6.01562 9.50488 -4.99121 14.5928c3.26367 15.9355 22.8799 36 52.5117 53.6953c3.48828 2.1123 18.3682 10.0166 19.0078 10.3359l8.67188 4.6084c8.41602 14.4004 17.6963 31.3916 27.9365 51.4238l1.2793 2.46387
c9.72852 19.04 20.7363 40.6406 29.5361 62.0801l3.13672 7.64844c-12.2568 46.9121 -19.04 83.1357 -12.4805 107.359c2.14355 7.74414 10.3682 12.8965 20.4805 12.8965l5.47168 -0.160156c9.05566 0.383789 14.8477 -6.81543 17.792 -13.5996l0.927734 -2.43262
c0.768555 -2.20801 1.02441 -3.04004 1.4082 -5.8877c2.87988 -20.7998 -7.96777 -82.3359 -7.96777 -82.3359c-0.512695 -2.30371 -1.08789 -4.54395 -1.72852 -7.10449c9.98438 -27.4238 26.0479 -52.3516 45.2803 -70.3037
c7.13574 -6.6875 16.2559 -12.2559 25.0879 -17.3438c19.7441 2.75195 38.4961 4.12793 54.0801 3.96777c23.04 -0.320312 38.1758 -3.87207 44.9922 -10.5918zM105.824 40.96v0.0322266c10.3682 4.67188 26.1436 19.6475 49.6953 57.2158
c-3.19922 -3.04004 -6.6875 -6.30371 -8.0957 -7.45605c-22.5273 -18.4639 -37.7598 -39.2637 -41.5996 -49.792zM239.232 348.16v0c-3.10449 0 -2.81641 -24.2881 -2.81641 -24.2881c0 -12.7041 1.8877 -32.1279 5.72754 -44.4482
c4.64062 8.32031 8.38477 19.584 8.06445 35.6162s-4.19238 33.1201 -10.9756 33.1201zM199.424 129.248h-0.0322266v0c25.9521 9.98438 55.4248 18.1758 89.5361 24.9277c-2.30371 1.75977 -4.54395 3.55176 -6.62402 5.3125
c-16.7676 14.208 -31.04 31.9355 -42.4961 52.7676c-5.75977 -14.8799 -13.4717 -32.9922 -25.7275 -56.1602c-5.02441 -9.47168 -9.91992 -18.3994 -14.6562 -26.8477zM414.464 131.168v0.0322266v0c2.08008 1.28027 1.91992 7.55176 -10.1758 10.6562
c-12.0957 3.10352 -15.7764 3.04004 -28.1602 3.04004c-6.78418 0 -14.3359 -0.320312 -22.5596 -0.928711c21.4072 -9.21582 36.7041 -14.8477 49.0557 -14.8477c3.80762 0 9.75977 0.736328 11.8398 2.04785zM458.912 333.472v0
c18.9121 -25.792 21.0879 -38.3037 21.0879 -45.4717v-312c0 -22.0479 -17.9521 -40 -40 -40h-368c-22.0479 0 -40 17.9521 -40 40v432c0 22.0479 17.9521 40 40 40h248c7.16797 0 19.6797 -2.17578 45.4717 -21.0879c15.1367 -11.1045 32.8643 -26.5918 49.8564 -43.584
s32.4795 -34.7197 43.584 -49.8564zM392.672 360.672h-0.0322266v0c-15.3281 15.3604 -29.1836 27.3926 -40.6719 36.2881v-76.96h76.9922c-8.89551 11.4883 -20.9277 25.3115 -36.2881 40.6719zM448 -24v312h-112c-8.83203 0 -16 7.16797 -16 16v112h-248
c-4.32031 0 -8 -3.67969 -8 -8v-432c0 -4.35156 3.67969 -8 8 -8h368c4.35156 0 8 3.64844 8 8z" />
    <glyph glyph-name="uniF173" unicode="&#xf173;" 
d="M464 384c26.4004 0 48 -21.5996 48 -48v-320c0 -26.4004 -21.5996 -48 -48 -48h-416c-26.4004 0 -48 21.5996 -48 48v320c0 26.4004 21.5996 48 48 48h416zM199.36 172.8l-135.36 145.376v-250.815zM88.1924 320l167.808 -126.016l167.808 126.016h-335.615z
M204.64 167.136l-105.279 -135.136h313.279l-105.279 135.136l-51.3604 -55.1357zM312.64 172.8l135.36 -105.439v250.815z" />
    <glyph glyph-name="uniF139" unicode="&#xf139;" 
d="M192 -16c0 -26.4961 -21.5039 -48 -48 -48s-48 21.5039 -48 48s21.5039 48 48 48s48 -21.5039 48 -48zM512 -16c0 -26.4961 -21.5039 -48 -48 -48s-48 21.5039 -48 48s21.5039 48 48 48s48 -21.5039 48 -48zM512 192l-416 -63.6797v-0.320312
c0 -17.6641 14.3359 -32 32 -32h384v-32h-384c-35.3604 0 -64 28.6396 -64 64c0 20.2236 9.37598 38.2402 24.0322 49.9844l-24.0322 206.016h-64v32h96c17.6641 0 32 -14.3359 32 -32h384v-192z" />
    <glyph glyph-name="uniF1CE" unicode="&#xf1ce;" 
d="M444.832 364.832l67.168 67.168v-176h-176l74.8477 74.8477c-38.0801 42.4326 -93.3438 69.1523 -154.848 69.1523c-114.88 0 -208 -93.1201 -208 -208h-48c0 141.376 114.624 256 256 256c74.752 0 142.016 -32.0645 188.832 -83.168zM464 192h48
c0 -141.376 -114.624 -256 -256 -256c-74.752 0 -142.016 32.0645 -188.832 83.168l-67.168 -67.168v176h176l-74.8477 -74.8477c38.0801 -42.4326 93.3438 -69.1523 154.848 -69.1523c114.88 0 208 93.1201 208 208z" />
    <glyph glyph-name="uniF292" unicode="&#xf292;" 
d="M310.812 104.498c6.8623 -6.94043 6.8623 -18.1475 0 -25.0381c-6.8623 -6.91211 -17.9482 -6.96191 -24.8037 0l-98.0479 100.046c-6.8623 6.91211 -6.8623 18.0977 0 25.0596l98.0479 100.046c6.83398 6.91211 17.9482 6.91211 24.8037 0
c6.8623 -6.94043 6.8623 -18.1475 0 -25.0381l-80.4121 -87.5801l80.4121 -87.5029v0.0078125z" />
    <glyph glyph-name="uniF1CF" unicode="&#xf1cf;" 
d="M256 448h256v-64h-64v-448h-64v448h-64v-448h-64v256c-70.6885 0 -128 57.3115 -128 128s57.3115 128 128 128zM0 96v256l128 -128z" />
    <glyph glyph-name="uniF25C" unicode="&#xf25c;" 
d="M97.0244 32h-56.832l96 320h111.615l96 -320h-56.7998l-28.7998 96h-132.384zM173.824 288l-28.7998 -96h93.9834l-28.7998 96h-36.3838zM352 32l80 128l80 -128h-160zM432 384c14.1758 0 26.9443 -6.17578 35.7441 -16c7.61621 -8.51172 12.2559 -19.7119 12.2559 -32
c0 -26.4639 -21.5361 -48 -48 -48h-64c-8.83203 0 -16 7.16797 -16 16s7.16797 16 16 16h64c8.83203 0 16 7.16797 16 16s-7.16797 16 -16 16h-32c-14.1758 0 -26.9443 6.17578 -35.7441 16c-7.61621 8.51172 -12.2559 19.7119 -12.2559 32c0 26.4639 21.5361 48 48 48h64
c8.83203 0 16 -7.16797 16 -16s-7.16797 -16 -16 -16h-64c-8.83203 0 -16 -7.16797 -16 -16s7.16797 -16 16 -16h32z" />
    <glyph glyph-name="uniF1A8" unicode="&#xf1a8;" 
d="M144 160c8.7998 0 16 -7.2002 16 -16v-192c0 -8.7998 -7.2002 -16 -16 -16h-32v224h32zM368 160h32v-224h-32c-8.7998 0 -16 7.2002 -16 16v192c0 8.7998 7.2002 16 16 16zM512 192c0 -30.6885 -5.4082 -60.1279 -15.3281 -87.4238
c9.72852 -16.6084 15.3281 -35.9365 15.3281 -56.5762c0 -56.416 -41.7275 -103.072 -96 -110.848v221.728c15.9678 -2.30371 30.8477 -7.93555 43.9043 -16.2236c2.6875 13.376 4.0957 27.2002 4.0957 41.3438c0 114.88 -93.1201 208 -208 208s-208 -93.1201 -208 -208
c0 -14.1758 1.44043 -28 4.12793 -41.3438c13.0557 8.25586 27.9043 13.9199 43.8721 16.1914v-221.695c-54.2725 7.74414 -96 54.4316 -96 110.848c0 20.6396 5.59961 39.9678 15.3281 56.5762c-9.91992 27.2637 -15.3281 56.7041 -15.3281 87.4238
c0 141.376 114.624 256 256 256s256 -114.624 256 -256z" />
    <glyph glyph-name="uniF18D" unicode="&#xf18d;" 
d="M256 448c141.376 0 256 -35.8076 256 -80v-48l-192 -192v-160c0 -17.6641 -28.6396 -32 -64 -32s-64 14.3359 -64 32v160l-192 192v48c0 44.1924 114.624 80 256 80zM47.2002 378.592c-7.9043 -4.51172 -12.1602 -8.31934 -14.1445 -10.5918
c1.98438 -2.27246 6.24023 -6.08008 14.1445 -10.5918c11.9678 -6.84863 28.7998 -13.3125 48.6396 -18.752c43.9678 -12.0322 100.864 -18.6562 160.16 -18.6562s116.192 6.62402 160.16 18.6562c19.8398 5.43945 36.6719 11.9355 48.6396 18.752
c7.9043 4.51172 12.1602 8.31934 14.1445 10.5918c-1.98438 2.27246 -6.24023 6.08008 -14.1445 10.5918c-11.9678 6.84863 -28.7998 13.3125 -48.6396 18.752c-43.9678 12.0322 -100.864 18.6562 -160.16 18.6562s-116.192 -6.62402 -160.16 -18.6562
c-19.8398 -5.43945 -36.6719 -11.9355 -48.6396 -18.752z" />
    <glyph glyph-name="uniF195" unicode="&#xf195;" 
d="M416 -32h-416l96 256h416zM64 256l-64 -288v416h144l64 -64h208v-64h-352z" />
    <glyph glyph-name="uniF197" unicode="&#xf197;" 
d="M288 320h224v-352h-512v416h224zM256 208l-112 -112h80v-128h64v128h80z" />
    <glyph glyph-name="uniF18F" unicode="&#xf18f;" 
d="M64 0v384h64v-176l160 160v-160l160 160v-352l-160 160v-160l-160 160v-176h-64z" />
    <glyph glyph-name="uniF17E" unicode="&#xf17e;" 
d="M192 192c0 35.3604 28.6396 64 64 64s64 -28.6396 64 -64s-28.6396 -64 -64 -64s-64 28.6396 -64 64zM332.16 332.736c49.9199 -27.0723 83.8398 -79.9365 83.8398 -140.736s-33.8877 -113.664 -83.8398 -140.736c22.0479 35.0723 35.8398 85.1201 35.8398 140.736
s-13.792 105.664 -35.8398 140.736zM144 192c0 -55.6162 13.792 -105.664 35.8398 -140.736c-49.9199 27.0723 -83.8398 79.9365 -83.8398 140.736s33.8877 113.664 83.8398 140.736c-22.0479 -35.0723 -35.8398 -85.1201 -35.8398 -140.736zM48 192
c0 -85.9521 27.2002 -163.104 70.3359 -215.872c-71.1357 45.4717 -118.336 125.152 -118.336 215.872s47.168 170.4 118.336 215.872c-43.1357 -52.7686 -70.3359 -129.92 -70.3359 -215.872zM393.664 407.872c71.1357 -45.4717 118.336 -125.152 118.336 -215.872
s-47.168 -170.4 -118.336 -215.872c43.1357 52.7686 70.3359 129.92 70.3359 215.872s-27.2002 163.104 -70.3359 215.872z" />
    <glyph glyph-name="uniF218" unicode="&#xf218;" 
d="M224 96h64v-64h-64v64zM352 320c17.6641 0 32 -14.3359 32 -32v-96l-96 -64h-64v32l96 64v32h-160v64h192zM256 400c-55.5518 0 -107.808 -21.6318 -147.072 -60.9277c-39.2637 -39.2959 -60.9277 -91.5205 -60.9277 -147.072s21.6318 -107.808 60.9277 -147.072
c39.2959 -39.2637 91.5205 -60.9277 147.072 -60.9277s107.808 21.6318 147.072 60.9277c39.2637 39.2959 60.9277 91.5205 60.9277 147.072s-21.6318 107.808 -60.9277 147.072c-39.2959 39.2637 -91.5205 60.9277 -147.072 60.9277zM256 448v0
c141.376 0 256 -114.624 256 -256s-114.624 -256 -256 -256s-256 114.624 -256 256s114.624 256 256 256z" />
    <glyph glyph-name="uniF265" unicode="&#xf265;" 
d="M448 64h64l-80 -96l-80 96h64v256h-64l80 96l80 -96h-64v-256zM320 416v-128l-32 64h-96v-352h64v-32h-192v32h64v352h-96l-32 -64v128h320z" />
    <glyph glyph-name="uniF1C9" unicode="&#xf1c9;" 
d="M192 416h320v-64h-320v64zM192 224h320v-64h-320v64zM192 32h320v-64h-320v64zM0 384c0 35.3604 28.6396 64 64 64s64 -28.6396 64 -64s-28.6396 -64 -64 -64s-64 28.6396 -64 64zM0 192c0 35.3604 28.6396 64 64 64s64 -28.6396 64 -64s-28.6396 -64 -64 -64
s-64 28.6396 -64 64zM0 0c0 35.3604 28.6396 64 64 64s64 -28.6396 64 -64s-28.6396 -64 -64 -64s-64 28.6396 -64 64z" />
    <glyph glyph-name="uniF140" unicode="&#xf140;" 
d="M256 448c141.376 0 256 -114.624 256 -256s-114.624 -256 -256 -256s-256 114.624 -256 256s114.624 256 256 256zM256 -16c114.88 0 208 93.1201 208 208s-93.1201 208 -208 208s-208 -93.1201 -208 -208s93.1201 -208 208 -208zM177.376 94.624l97.376 97.376
l-97.376 97.376l45.248 45.248l142.624 -142.624l-142.624 -142.624z" />
    <glyph glyph-name="uniF217" unicode="&#xf217;" 
d="M160 416h-128v-128h128v128zM192 448v0v-192h-192v192h192zM64 384h64v-64h-64v64zM480 416h-128v-128h128v128zM512 448v0v-192h-192v192h192zM384 384h64v-64h-64v64zM160 96h-128v-128h128v128zM192 128v0v-192h-192v192h192zM64 64h64v-64h-64v64zM224 448h32v-32
h-32v32zM256 416h32v-32h-32v32zM224 384h32v-32h-32v32zM256 352h32v-32h-32v32zM224 320h32v-32h-32v32zM256 288h32v-32h-32v32zM224 256h32v-32h-32v32zM224 192h32v-32h-32v32zM256 160h32v-32h-32v32zM224 128h32v-32h-32v32zM256 96h32v-32h-32v32zM224 64h32v-32
h-32v32zM256 32h32v-32h-32v32zM224 0h32v-32h-32v32zM256 -32h32v-32h-32v32zM480 192h32v-32h-32v32zM32 192h32v-32h-32v32zM64 224h32v-32h-32v32zM0 224h32v-32h-32v32zM128 224h32v-32h-32v32zM160 192h32v-32h-32v32zM192 224h32v-32h-32v32zM288 192h32v-32h-32v32z
M320 224h32v-32h-32v32zM352 192h32v-32h-32v32zM384 224h32v-32h-32v32zM416 192h32v-32h-32v32zM448 224h32v-32h-32v32zM480 128h32v-32h-32v32zM288 128h32v-32h-32v32zM320 160h32v-32h-32v32zM352 128h32v-32h-32v32zM416 128h32v-32h-32v32zM448 160h32v-32h-32v32z
M480 64h32v-32h-32v32zM288 64h32v-32h-32v32zM320 96h32v-32h-32v32zM384 96h32v-32h-32v32zM416 64h32v-32h-32v32zM448 96h32v-32h-32v32zM480 0h32v-32h-32v32zM320 32h32v-32h-32v32zM352 0h32v-32h-32v32zM384 32h32v-32h-32v32zM416 0h32v-32h-32v32zM320 -32h32v-32
h-32v32zM384 -32h32v-32h-32v32zM448 -32h32v-32h-32v32z" />
    <glyph glyph-name="uniF227" unicode="&#xf227;" 
d="M456.928 108.16c33.3447 -52.1279 30.208 -113.664 -7.00781 -137.472c-37.2158 -23.8086 -94.4004 -0.864258 -127.744 51.2314l-82.1436 128.928l-82.1445 -128.928c-33.3438 -52.1279 -90.5273 -75.04 -127.744 -51.2314
c-37.2158 23.8398 -40.3516 85.3438 -7.00781 137.472c33.3447 52.1279 90.5283 75.04 127.744 51.2314c3.2002 -2.04785 6.14453 -4.38379 8.86426 -6.97559l39.7119 62.1436l-91.7441 144c-7.48828 13.8564 -10.2715 30.3682 -6.62402 46.9766
c3.48828 15.8721 12.2559 29.2158 24.0645 38.624l6.14355 3.9043l108.736 -170.049l108.735 170.049l6.14453 -3.9043c11.8076 -9.4082 20.5762 -22.752 24.0635 -38.624c3.64844 -16.6084 0.896484 -33.1201 -6.62402 -46.9766l-91.7432 -144l39.7119 -62.1436
c2.6875 2.55957 5.66406 4.92773 8.86328 6.97559c37.2168 23.8086 94.4004 0.864258 127.744 -51.2314zM117.44 47.7764c10.624 16.5752 16.2559 35.168 15.4561 51.0078c-0.512695 9.75977 -3.45605 17.2803 -7.9043 20.1279
c-4.03223 2.55957 -9.91992 1.98438 -14.1758 1.05566c-13.0244 -2.87988 -32.2881 -14.2715 -47.2969 -37.7275c-10.623 -16.5762 -16.2559 -35.2002 -15.4551 -51.0078c0.511719 -9.76074 3.45508 -17.2803 7.90332 -20.1289
c4.03223 -2.55957 9.91992 -1.9834 14.1758 -1.05566v0c13.0244 2.87988 32.2881 14.2725 47.2969 37.7285zM240 192c8.83203 0 16 7.16797 16 16s-7.16797 16 -16 16s-16 -7.16797 -16 -16s7.16797 -16 16 -16zM431.936 31.2637
c0.800781 15.8086 -4.83203 34.4004 -15.4551 51.0088c-15.0088 23.4551 -34.2725 34.8799 -47.2969 37.7275c-4.25586 0.927734 -10.1758 1.50391 -14.1758 -1.05566c-4.44824 -2.84863 -7.3916 -10.3682 -7.9043 -20.1279
c-0.799805 -15.8086 4.83203 -34.4004 15.4561 -51.0088c15.0088 -23.4561 34.2725 -34.8799 47.2969 -37.7275v0c4.25586 -0.927734 10.1758 -1.50391 14.1758 1.05566c4.44824 2.84863 7.3916 10.3682 7.90332 20.1279z" />
    <glyph glyph-name="uniF266" unicode="&#xf266;" 
d="M128 0v-64l-96 80l96 80v-64h256v64l96 -80l-96 -80v64h-256zM416 416v-128l-32 64h-96v-224h64v-32h-192v32h64v224h-96l-32 -64v128h320z" />
    <glyph glyph-name="uniF2A6" unicode="&#xf2a6;" 
d="M384 89.5996h-256l128 230.4z" />
    <glyph glyph-name="uniF126" unicode="&#xf126;" 
d="M96 448h320v-512l-160 160l-160 -160v512z" />
    <glyph glyph-name="uniF1D6" unicode="&#xf1d6;" 
d="M160 384c17.5996 0 32 -14.4004 32 -32v-64c0 -17.5996 -14.4004 -32 -32 -32h-64c-17.5996 0 -32 14.4004 -32 32v64c0 17.5996 14.4004 32 32 32h64zM352 256c-17.5996 0 -32 14.4004 -32 32v64c0 17.5996 14.4004 32 32 32h64c17.5996 0 32 -14.4004 32 -32v-64
c0 -17.5996 -14.4004 -32 -32 -32h-64zM352 352v-64h64v64h-64zM160 128c17.5996 0 32 -14.4004 32 -32v-64c0 -17.5996 -14.4004 -32 -32 -32h-64c-17.5996 0 -32 14.4004 -32 32v64c0 17.5996 14.4004 32 32 32h64zM160 32v64h-64v-64h64zM416 128
c17.5996 0 32 -14.4004 32 -32v-64c0 -17.5996 -14.4004 -32 -32 -32h-64c-17.5996 0 -32 14.4004 -32 32v64c0 17.5996 14.4004 32 32 32h64zM448 192c35.2002 0 64 -28.7998 64 -64v-128c0 -35.2002 -28.7998 -64 -64 -64h-128c-35.2002 0 -64 28.7998 -64 64v32
c0 42.752 -16.6084 82.9443 -46.8477 113.152c-30.2402 30.208 -70.4004 46.8477 -113.152 46.8477h-32c-35.2002 0 -64 28.7998 -64 64v128c0 35.2002 28.7998 64 64 64h128c35.2002 0 64 -28.7998 64 -64v-32c0 -42.752 16.6084 -82.9443 46.8477 -113.152
c30.2402 -30.208 70.4004 -46.8477 113.152 -46.8477h32zM480 0v128c0 8.48047 -3.36035 16.4805 -9.44043 22.5596c-6.0791 6.08008 -14.0791 9.44043 -22.5596 9.44043h-32c-106.048 0 -192 85.9521 -192 192v32c0 8.48047 -3.36035 16.4805 -9.44043 22.5596
c-6.0791 6.08008 -14.0791 9.44043 -22.5596 9.44043h-128c-8.48047 0 -16.4805 -3.36035 -22.5596 -9.44043c-6.08008 -6.0791 -9.44043 -14.0791 -9.44043 -22.5596v-128c0 -8.44824 3.36035 -16.4805 9.44043 -22.5596
c6.0791 -6.08008 14.0791 -9.44043 22.5596 -9.44043h32c106.048 0 192 -85.9521 192 -192v-32c0 -8.48047 3.36035 -16.4805 9.44043 -22.5596c6.0791 -6.08008 14.0791 -9.44043 22.5596 -9.44043h128c8.48047 0 16.4805 3.36035 22.5596 9.44043
c6.08008 6.0791 9.44043 14.0791 9.44043 22.5596z" />
    <glyph glyph-name="uniF147" unicode="&#xf147;" 
d="M446.144 190.752c37.4404 -6.6875 65.8564 -39.3916 65.8564 -78.752c0 -44.1924 -35.8076 -80 -80 -80h-304c-70.6885 0 -128 57.3115 -128 128s57.3115 128 128 128c12.4482 0 24.4805 -1.79199 35.8398 -5.08789c11.6484 39.9355 48.4805 69.0879 92.1602 69.0879
c42.7842 0 79.04 -28 91.4238 -66.6885c6.56055 1.76074 13.4727 2.68848 20.5762 2.68848c44.1924 0 80 -35.8076 80 -80c0 -5.91992 -0.639648 -11.6797 -1.85645 -17.248zM208 64l144 144l-32 32l-112 -112l-48 48l-32 -32z" />
    <glyph glyph-name="uniF253" unicode="&#xf253;" 
d="M64 0h448v-64h-512v512h64v-448zM144 32c-26.4961 0 -48 21.5039 -48 48s21.5039 48 48 48c1.4082 0 2.81641 -0.0644531 4.19238 -0.192383l51.584 85.9844c-4.92871 7.51953 -7.77637 16.5439 -7.77637 26.208c0 26.4961 21.5039 48 48 48s48 -21.5039 48 -48
c0 -9.66406 -2.87988 -18.6562 -7.77637 -26.208l51.584 -85.9844c1.37598 0.12793 2.78418 0.192383 4.19238 0.192383c1.05566 0 2.1123 -0.0322266 3.16797 -0.12793l85.1836 149.056c-5.2793 7.71191 -8.35156 17.0244 -8.35156 27.04c0 26.4961 21.5039 48 48 48
s48 -21.5039 48 -48s-21.5039 -48 -48 -48c-1.05566 0 -2.1123 0.0322266 -3.16797 0.12793l-85.1836 -149.056c5.2793 -7.71191 8.35156 -17.0244 8.35156 -27.04c0 -26.4961 -21.5039 -48 -48 -48s-48 21.5039 -48 48c0 9.66406 2.87988 18.6562 7.77637 26.208
l-51.584 85.9844c-1.37598 -0.12793 -2.78418 -0.192383 -4.19238 -0.192383s-2.81641 0.0644531 -4.19238 0.192383l-51.584 -85.9844c4.92871 -7.51953 7.77637 -16.5439 7.77637 -26.208c0 -26.4961 -21.5039 -48 -48 -48z" />
    </font>
</defs>
</svg>
