<?xml version="1.0" encoding="UTF-8" standalone="no"?>
<svg width="1803px" height="600px" viewBox="0 0 1803 600" version="1.1" xmlns="http://www.w3.org/2000/svg" xmlns:xlink="http://www.w3.org/1999/xlink" xmlns:sketch="http://www.bohemiancoding.com/sketch/ns">
    <!-- Generator: Sketch 3.4.2 (15857) - http://www.bohemiancoding.com/sketch -->
    <title>upload-cover</title>
    <desc>Created with Sketch.</desc>
    <defs></defs>
    <g id="Page-1" stroke="none" stroke-width="1" fill="none" fill-rule="evenodd" sketch:type="MSPage">
        <g id="upload-cover" sketch:type="MSArtboardGroup">
            <rect id="Rectangle-1" fill="#F5F5F5" sketch:type="MSShapeGroup" x="-3" y="0" width="1806" height="600"></rect>
            <path d="M943.962049,221.22 C943.962049,219.6525 931.285765,196.8525 929.474867,194.2875 C928.639068,193.1475 927.942569,192.435 926.410271,192.435 C921.952677,192.435 918.470181,202.41 913.455388,202.41 C912.201689,202.41 910.947991,201.84 910.251492,200.8425 L884.063125,169.4925 C883.505926,168.78 882.670127,168.21 881.695028,168.21 C880.30203,168.21 879.605531,169.065 878.909032,170.0625 C876.958834,173.1975 875.565836,176.76 873.894238,180.18 C870.272443,187.1625 866.789947,194.2875 863.307451,201.4125 C859.824956,208.68 855.506661,215.805 852.859965,223.5 L941.036753,223.5 C942.429751,223.5 943.962049,222.7875 943.962049,221.22 L943.962049,221.22 Z M941.036753,175.905 C941.036753,170.775 936.857758,166.5 931.842964,166.5 C926.688871,166.5 922.509876,170.775 922.509876,175.905 C922.509876,181.1775 926.688871,185.4525 931.842964,185.4525 C936.857758,185.4525 941.036753,181.1775 941.036753,175.905 L941.036753,175.905 Z M843.526876,232.905 L843.526876,156.9525 L954.966735,156.9525 L954.966735,232.905 L843.526876,232.905 Z M973.632911,147.405 C973.632911,142.275 969.453917,138 964.299823,138 L834.333088,138 C829.178995,138 825,142.275 825,147.405 L825,244.02 C825,249.435 829.457594,252 834.333088,252 L964.299823,252 C969.453917,252 973.632911,247.725 973.632911,242.4525 L973.632911,147.405 Z" id="Image-Icon" fill="#E7E7E7" sketch:type="MSShapeGroup"></path>
            <text id="Drag-and-drop-your-c" sketch:type="MSTextLayer" font-family="Source Sans Pro" font-size="29" font-weight="260" fill="#9C9C9C">
                <tspan x="569" y="307">Drag and drop your cover picture here or Click on upload</tspan>
            </text>
        </g>
    </g>
</svg>